<svg width="25" height="24" viewBox="0 0 25 24" fill="none" xmlns="http://www.w3.org/2000/svg">
<path d="M4.50781 15.25C4.50781 14.4167 4.64844 13.6641 4.92969 12.9922C5.21615 12.3151 5.60156 11.7812 6.08594 11.3906C6.57552 11 7.125 10.8047 7.73438 10.8047H8.8125C8.5625 11.1276 8.32552 11.5026 8.10156 11.9297C7.88281 12.3568 7.70312 12.8411 7.5625 13.3828C7.42708 13.9193 7.35938 14.5156 7.35938 15.1719C7.35417 16.0833 7.51302 16.9271 7.83594 17.7031C8.16406 18.474 8.68229 19.1328 9.39062 19.6797H8.03125C7.35938 19.6797 6.75781 19.4792 6.22656 19.0781C5.69531 18.6771 5.27604 18.1432 4.96875 17.4766C4.66146 16.8047 4.50781 16.0625 4.50781 15.25ZM8.5 15.1875C8.5 14.5625 8.55469 14.0026 8.66406 13.5078C8.77344 13.0078 8.94271 12.5365 9.17188 12.0938C9.40104 11.6458 9.6901 11.1901 10.0391 10.7266C10.6432 9.92448 11.3099 9.04688 12.0391 8.09375C12.7682 7.14062 13.4297 6.08854 14.0234 4.9375C14.1901 4.61458 14.362 4.36198 14.5391 4.17969C14.7161 3.9974 14.9531 3.90625 15.25 3.90625C15.5833 3.90625 15.862 4.01562 16.0859 4.23438C16.3099 4.45312 16.4219 4.75781 16.4219 5.14844C16.4219 5.5026 16.3516 5.88542 16.2109 6.29688C16.0755 6.70312 15.9193 7.10938 15.7422 7.51562C15.5651 7.92188 15.4089 8.30469 15.2734 8.66406C15.1432 9.02344 15.0781 9.33594 15.0781 9.60156C15.0781 9.8776 15.1797 10.0964 15.3828 10.2578C15.5911 10.4193 15.8646 10.5 16.2031 10.5H19.0234C19.2995 10.5 19.5469 10.5651 19.7656 10.6953C19.9844 10.8255 20.1589 11.0026 20.2891 11.2266C20.4193 11.4505 20.4844 11.6979 20.4844 11.9688C20.4844 12.1927 20.4479 12.3958 20.375 12.5781C20.3021 12.7552 20.2031 12.901 20.0781 13.0156C19.974 13.1094 19.9661 13.1979 20.0547 13.2812C20.1536 13.3854 20.2318 13.5286 20.2891 13.7109C20.3516 13.888 20.3828 14.0729 20.3828 14.2656C20.3828 14.5312 20.3255 14.7708 20.2109 14.9844C20.0964 15.1979 19.9479 15.3646 19.7656 15.4844C19.6458 15.5521 19.625 15.6406 19.7031 15.75C19.8854 15.9948 19.9766 16.2969 19.9766 16.6562C19.9766 16.9688 19.888 17.2422 19.7109 17.4766C19.5391 17.7057 19.3281 17.8776 19.0781 17.9922C18.9896 18.0286 18.974 18.0964 19.0312 18.1953C19.0781 18.2786 19.1172 18.3776 19.1484 18.4922C19.1849 18.6068 19.2031 18.7396 19.2031 18.8906C19.2031 19.276 19.0729 19.5781 18.8125 19.7969C18.5573 20.0156 18.2604 20.1667 17.9219 20.25C17.7031 20.3073 17.401 20.3516 17.0156 20.3828C16.6302 20.4193 16.1823 20.4375 15.6719 20.4375H14.5781C13.6458 20.4375 12.8047 20.3047 12.0547 20.0391C11.3047 19.7734 10.6641 19.4036 10.1328 18.9297C9.60156 18.4557 9.19531 17.901 8.91406 17.2656C8.63281 16.625 8.49479 15.9323 8.5 15.1875Z" fill="white"/>
</svg>
