<svg width="24" height="24" viewBox="0 0 24 24" fill="none" xmlns="http://www.w3.org/2000/svg">
<path d="M13.0547 19.625C12.7526 19.625 12.5 19.526 12.2969 19.3281C12.099 19.1302 12 18.8828 12 18.5859V15.7656H11.8047C10.8516 15.7656 10.013 15.8672 9.28906 16.0703C8.5651 16.2734 7.92969 16.6042 7.38281 17.0625C6.83594 17.5208 6.35677 18.1354 5.94531 18.9062C5.79427 19.1875 5.625 19.3724 5.4375 19.4609C5.25521 19.5495 5.0625 19.5938 4.85938 19.5938C4.58854 19.5938 4.35938 19.4688 4.17188 19.2188C3.98958 18.974 3.89844 18.6094 3.89844 18.125C3.89844 16.7083 4.05729 15.4375 4.375 14.3125C4.69271 13.1823 5.17448 12.2188 5.82031 11.4219C6.47135 10.625 7.29167 10.0182 8.28125 9.60156C9.27604 9.17969 10.4505 8.96875 11.8047 8.96875H12V6.17188C12 5.875 12.099 5.6224 12.2969 5.41406C12.5 5.20052 12.7552 5.09375 13.0625 5.09375C13.2708 5.09375 13.4583 5.14062 13.625 5.23438C13.7969 5.32292 13.9948 5.47396 14.2188 5.6875L20.4062 11.4531C20.5573 11.5938 20.6641 11.7448 20.7266 11.9062C20.7943 12.0625 20.8281 12.2135 20.8281 12.3594C20.8281 12.5 20.7943 12.651 20.7266 12.8125C20.6641 12.974 20.5573 13.125 20.4062 13.2656L14.2188 19.0781C14.0156 19.2708 13.8203 19.4089 13.6328 19.4922C13.4505 19.5807 13.2578 19.625 13.0547 19.625Z" fill="white"/>
</svg>
