<svg width="32" height="34" viewBox="0 0 32 34" fill="none" xmlns="http://www.w3.org/2000/svg">
<path d="M30.6719 11.0312C31.0703 11.2109 31.375 11.457 31.5859 11.7695C31.7969 12.082 31.9023 12.4102 31.9023 12.7539C31.9023 13.1055 31.7969 13.4336 31.5859 13.7383C31.375 14.043 31.0703 14.2891 30.6719 14.4766L19.2109 19.7266C18.5938 20 18.0273 20.2031 17.5117 20.3359C16.9961 20.4688 16.4883 20.5312 15.9883 20.5234C15.5039 20.5312 15 20.4727 14.4766 20.3477C13.9609 20.2148 13.3945 20.0078 12.7773 19.7266L7.69141 17.3945L14.8398 14.0664C15.207 14.1836 15.6055 14.2422 16.0352 14.2422C16.4805 14.2422 16.9023 14.1797 17.3008 14.0547C17.6992 13.9219 18.0234 13.7461 18.2734 13.5273C18.5234 13.3008 18.6484 13.043 18.6484 12.7539C18.6484 12.4727 18.5234 12.2227 18.2734 12.0039C18.0234 11.7852 17.6992 11.6133 17.3008 11.4883C16.9023 11.3633 16.4805 11.3008 16.0352 11.3008C15.5898 11.3008 15.1641 11.3633 14.7578 11.4883C14.3594 11.6133 14.0312 11.7852 13.7734 12.0039C13.5234 12.2227 13.3984 12.4727 13.3984 12.7539C13.3984 12.8398 13.4258 12.918 13.4805 12.9883L5.88672 16.5273L1.32812 14.4766C0.921875 14.2891 0.613281 14.043 0.402344 13.7383C0.199219 13.4336 0.0976562 13.1055 0.0976562 12.7539C0.0976562 12.4102 0.199219 12.082 0.402344 11.7695C0.613281 11.457 0.921875 11.2109 1.32812 11.0312L12.7773 5.79297C13.3867 5.51172 13.9531 5.30859 14.4766 5.18359C15 5.05078 15.5039 4.98828 15.9883 4.99609C16.4883 4.98828 16.9961 5.05078 17.5117 5.18359C18.0273 5.30859 18.5938 5.51172 19.2109 5.79297L30.6719 11.0312ZM7.65625 19.2578L12.0625 21.2734C13.4922 21.9219 14.8008 22.2422 15.9883 22.2344C17.1914 22.2422 18.5039 21.9219 19.9258 21.2734L27.5781 17.7695V21.4844C27.5781 22.3906 27.2969 23.2461 26.7344 24.0508C26.1797 24.8477 25.3906 25.5508 24.3672 26.1602C23.3438 26.7695 22.1211 27.2461 20.6992 27.5898C19.2852 27.9336 17.7148 28.1055 15.9883 28.1055C14.2852 28.1055 12.7227 27.9297 11.3008 27.5781C9.88672 27.2344 8.67188 26.7539 7.65625 26.1367V19.2578ZM4.41016 17.7695L5.93359 18.4727V24.7539C5.44141 24.2383 5.0625 23.6914 4.79688 23.1133C4.53906 22.5352 4.41016 21.9922 4.41016 21.4844V17.7695ZM5.93359 28.668V24.7539C6.16016 25.0117 6.41797 25.2539 6.70703 25.4805C7.00391 25.7148 7.32031 25.9336 7.65625 26.1367V28.6797L5.93359 28.668ZM4.90234 28.9258C4.90234 28.4258 5.05078 28.0234 5.34766 27.7188C5.65234 27.4219 6.05469 27.2734 6.55469 27.2734H7.02344C7.52344 27.2734 7.92188 27.4219 8.21875 27.7188C8.52344 28.0234 8.67578 28.4258 8.67578 28.9258V31.9609C8.67578 32.4609 8.52344 32.8594 8.21875 33.1562C7.92188 33.4609 7.52344 33.6133 7.02344 33.6133H6.55469C6.05469 33.6133 5.65234 33.4609 5.34766 33.1562C5.05078 32.8594 4.90234 32.4609 4.90234 31.9609V28.9258Z" fill="#00A2FF"/>
</svg>
