<svg width="32" height="32" viewBox="0 0 32 32" fill="none" xmlns="http://www.w3.org/2000/svg">
<path d="M4.42188 14.4062C4.42188 13.0938 4.66797 11.8633 5.16016 10.7148C5.66016 9.55859 6.34766 8.54297 7.22266 7.66797C8.09766 6.78516 9.10938 6.09766 10.2578 5.60547C11.4141 5.11328 12.6484 4.86719 13.9609 4.86719C15.2812 4.86719 16.5156 5.11328 17.6641 5.60547C18.8203 6.09766 19.8359 6.78516 20.7109 7.66797C21.5859 8.54297 22.2695 9.55859 22.7617 10.7148C23.2617 11.8633 23.5117 13.0938 23.5117 14.4062C23.5117 15.4375 23.3516 16.418 23.0312 17.3477C22.7188 18.2773 22.2852 19.125 21.7305 19.8906L27.0742 25.2578C27.2383 25.4141 27.3594 25.5977 27.4375 25.8086C27.5234 26.0195 27.5664 26.2422 27.5664 26.4766C27.5664 26.8047 27.4922 27.1016 27.3438 27.3672C27.1953 27.6328 26.9922 27.8398 26.7344 27.9883C26.4766 28.1445 26.1797 28.2227 25.8438 28.2227C25.6094 28.2227 25.3828 28.1797 25.1641 28.0938C24.9531 28.0156 24.7617 27.8906 24.5898 27.7188L19.2109 22.3398C18.4609 22.8398 17.6406 23.2344 16.75 23.5234C15.8672 23.8047 14.9375 23.9453 13.9609 23.9453C12.6484 23.9453 11.4141 23.6992 10.2578 23.207C9.10938 22.7148 8.09766 22.0312 7.22266 21.1562C6.34766 20.2812 5.66016 19.2695 5.16016 18.1211C4.66797 16.9648 4.42188 15.7266 4.42188 14.4062ZM6.87109 14.4062C6.87109 15.3906 7.05078 16.3125 7.41016 17.1719C7.77734 18.0234 8.28516 18.7734 8.93359 19.4219C9.58984 20.0703 10.3477 20.582 11.207 20.957C12.0664 21.3242 12.9844 21.5078 13.9609 21.5078C14.9453 21.5078 15.8633 21.3242 16.7148 20.957C17.5742 20.582 18.3281 20.0703 18.9766 19.4219C19.625 18.7734 20.1328 18.0234 20.5 17.1719C20.875 16.3125 21.0625 15.3906 21.0625 14.4062C21.0625 13.4297 20.875 12.5117 20.5 11.6523C20.1328 10.793 19.625 10.0391 18.9766 9.39062C18.3281 8.73438 17.5742 8.22656 16.7148 7.86719C15.8633 7.5 14.9453 7.31641 13.9609 7.31641C12.9844 7.31641 12.0664 7.5 11.207 7.86719C10.3477 8.22656 9.58984 8.73438 8.93359 9.39062C8.28516 10.0391 7.77734 10.793 7.41016 11.6523C7.05078 12.5117 6.87109 13.4297 6.87109 14.4062Z" fill="#00A2FF"/>
</svg>
