<svg width="40" height="40" viewBox="0 0 40 40" fill="none" xmlns="http://www.w3.org/2000/svg">
<path d="M0 20C0 8.95431 8.95431 0 20 0C31.0457 0 40 8.95431 40 20C40 31.0457 31.0457 40 20 40C8.95431 40 0 31.0457 0 20Z" fill="#00A2FF" fill-opacity="0.05"/>
<path d="M29.832 18.0664C30.2539 18.0664 30.6133 17.918 30.9102 17.6211C31.207 17.3242 31.3555 16.9688 31.3555 16.5547C31.3555 16.1406 31.207 15.7852 30.9102 15.4883C30.6133 15.1914 30.2539 15.043 29.832 15.043C29.418 15.043 29.0625 15.1914 28.7656 15.4883C28.4688 15.7852 28.3203 16.1406 28.3203 16.5547C28.3203 16.9688 28.4688 17.3242 28.7656 17.6211C29.0625 17.918 29.418 18.0664 29.832 18.0664ZM9.35938 31.4961C8.09375 31.4961 7.13672 31.1719 6.48828 30.5234C5.83984 29.8828 5.51562 28.9375 5.51562 27.6875V15.3945C5.51562 14.1445 5.83984 13.1992 6.48828 12.5586C7.13672 11.9102 8.09375 11.5859 9.35938 11.5859H12.4297C12.8906 11.5859 13.2344 11.5352 13.4609 11.4336C13.6875 11.3242 13.9375 11.125 14.2109 10.8359L15.1367 9.82812C15.4492 9.50781 15.7812 9.26953 16.1328 9.11328C16.4844 8.94922 16.9609 8.86719 17.5625 8.86719H22.3789C22.9727 8.86719 23.4453 8.94922 23.7969 9.11328C24.1562 9.26953 24.4883 9.50781 24.793 9.82812L25.7188 10.8359C25.9062 11.0312 26.0742 11.1836 26.2227 11.293C26.3789 11.4023 26.5508 11.4805 26.7383 11.5273C26.9336 11.5664 27.1875 11.5859 27.5 11.5859H30.6289C31.8945 11.5859 32.8516 11.9102 33.5 12.5586C34.1562 13.1992 34.4844 14.1445 34.4844 15.3945V27.6875C34.4844 28.9375 34.1562 29.8828 33.5 30.5234C32.8516 31.1719 31.8945 31.4961 30.6289 31.4961H9.35938ZM20 27.8281C20.875 27.8281 21.6953 27.668 22.4609 27.3477C23.2266 27.0195 23.8984 26.5664 24.4766 25.9883C25.0547 25.4102 25.5039 24.7383 25.8242 23.9727C26.1523 23.207 26.3164 22.3789 26.3164 21.4883C26.3164 20.3164 26.0352 19.25 25.4727 18.2891C24.9102 17.3281 24.1484 16.5664 23.1875 16.0039C22.2266 15.4414 21.1641 15.1602 20 15.1602C19.1172 15.1602 18.293 15.3242 17.5273 15.6523C16.7617 15.9727 16.0898 16.4219 15.5117 17C14.9414 17.5781 14.4922 18.25 14.1641 19.0156C13.8359 19.7812 13.6719 20.6055 13.6719 21.4883C13.6719 22.3789 13.8359 23.207 14.1641 23.9727C14.4922 24.7383 14.9414 25.4102 15.5117 25.9883C16.0898 26.5664 16.7617 27.0195 17.5273 27.3477C18.293 27.668 19.1172 27.8281 20 27.8281ZM20 25.7305C19.2188 25.7305 18.5078 25.543 17.8672 25.168C17.2266 24.7852 16.7148 24.2734 16.332 23.6328C15.9492 22.9922 15.7578 22.2773 15.7578 21.4883C15.7578 20.707 15.9492 19.9961 16.332 19.3555C16.7148 18.7148 17.2266 18.2031 17.8672 17.8203C18.5078 17.4375 19.2188 17.2461 20 17.2461C20.7812 17.2461 21.4922 17.4375 22.1328 17.8203C22.7734 18.2031 23.2812 18.7148 23.6562 19.3555C24.0391 19.9961 24.2305 20.707 24.2305 21.4883C24.2305 22.2773 24.0391 22.9922 23.6562 23.6328C23.2812 24.2734 22.7734 24.7852 22.1328 25.168C21.4922 25.543 20.7812 25.7305 20 25.7305Z" fill="black" fill-opacity="0.2"/>
</svg>
