<svg width="36" height="32" viewBox="0 0 36 32" fill="none" xmlns="http://www.w3.org/2000/svg">
<path d="M18.8555 27.5664C18.3945 27.5664 17.9453 27.4883 17.5078 27.332C17.0703 27.1836 16.5547 26.8477 15.9609 26.3242L11.168 22.3281C11.0742 22.3359 10.9805 22.3438 10.8867 22.3516C10.793 22.3516 10.6992 22.3516 10.6055 22.3516C9.46484 22.3516 8.40234 22.2344 7.41797 22C6.44141 21.7578 5.55859 21.375 4.76953 20.8516C3.98047 20.3281 3.29688 19.6367 2.71875 18.7773C1.97656 18.7773 1.36328 18.582 0.878906 18.1914C0.394531 17.793 0.152344 17.2539 0.152344 16.5742C0.152344 15.9805 0.363281 15.4961 0.785156 15.1211C1.21484 14.7461 1.74219 14.5625 2.36719 14.5703C2.90625 13.0781 3.59375 11.8359 4.42969 10.8438C5.26562 9.85156 6.23047 9.11328 7.32422 8.62891C8.42578 8.13672 9.62109 7.89062 10.9102 7.89062C11.8789 7.89062 12.7852 8 13.6289 8.21875C14.4727 8.4375 15.293 8.74219 16.0898 9.13281C16.8945 9.51562 17.707 9.95312 18.5273 10.4453C19.3477 10.9375 20.2148 11.457 21.1289 12.0039C21.8164 12.3945 22.4219 12.7227 22.9453 12.9883C23.4766 13.2539 23.9805 13.3867 24.457 13.3867C24.7695 13.3867 25.0508 13.3203 25.3008 13.1875C25.5508 13.0547 25.8047 12.8672 26.0625 12.625L19.3828 8.45312C18.8984 8.14844 18.3906 7.80859 17.8594 7.43359C17.3281 7.05078 16.8828 6.67188 16.5234 6.29688C16.1641 5.92188 15.9844 5.58203 15.9844 5.27734C15.9844 4.93359 16.1328 4.62109 16.4297 4.33984C16.7266 4.05078 17.1016 3.80078 17.5547 3.58984C18.0156 3.37109 18.5 3.20703 19.0078 3.09766C19.5156 2.98047 19.9844 2.92188 20.4141 2.92188C21.4688 2.92188 22.5156 3.19922 23.5547 3.75391C24.6016 4.30859 25.5547 5.17578 26.4141 6.35547L29.4375 10.5039C30.375 10.4883 31.2344 10.6484 32.0156 10.9844C32.7969 11.3125 33.4727 11.7773 34.043 12.3789C34.6133 12.9805 35.0547 13.6836 35.3672 14.4883C35.6797 15.293 35.8359 16.1602 35.8359 17.0898C35.8359 18.1133 35.668 18.9062 35.332 19.4688C35.0039 20.0312 34.5039 20.4219 33.832 20.6406C33.1602 20.8594 32.3125 20.9688 31.2891 20.9688C30.6797 20.9688 30.1055 20.9023 29.5664 20.7695C29.0352 20.6289 28.5273 20.4414 28.043 20.207C27.5586 19.9727 27.0938 19.707 26.6484 19.4102C26.1094 19.6523 25.625 19.9023 25.1953 20.1602C24.7734 20.4102 24.3828 20.6562 24.0234 20.8984C23.6875 20.8359 23.3516 20.793 23.0156 20.7695C22.6875 20.7461 22.3477 20.7344 21.9961 20.7344C21.5664 20.7344 21.1367 20.7539 20.707 20.793C20.2852 20.8242 19.8789 20.8828 19.4883 20.9688L18.6914 19.082C17.8789 17.1523 16.8086 15.7148 15.4805 14.7695C14.1523 13.8242 12.6094 13.3516 10.8516 13.3516C10.2969 13.3516 9.80078 13.418 9.36328 13.5508C8.93359 13.6758 8.71875 13.9336 8.71875 14.3242C8.71875 14.5664 8.79297 14.7461 8.94141 14.8633C9.09766 14.9805 9.30469 15.0391 9.5625 15.0391H10.957C11.8945 15.0391 12.7578 15.2227 13.5469 15.5898C14.3359 15.9492 15.0391 16.4688 15.6562 17.1484C16.2812 17.8203 16.8047 18.625 17.2266 19.5625L18.5391 22.4922C18.875 22.4219 19.2031 22.3516 19.5234 22.2812C19.8438 22.2109 20.207 22.1562 20.6133 22.1172C21.0195 22.0703 21.5234 22.0469 22.125 22.0469C23.3125 22.0469 24.3281 22.2031 25.1719 22.5156C26.0234 22.8203 26.6758 23.2383 27.1289 23.7695C27.5898 24.3008 27.8203 24.9102 27.8203 25.5977C27.8203 26.2227 27.5898 26.707 27.1289 27.0508C26.668 27.3945 26.0078 27.5664 25.1484 27.5664C24.7578 27.5664 24.4258 27.5312 24.1523 27.4609C23.8789 27.3984 23.5781 27.3359 23.25 27.2734C22.9219 27.2109 22.5 27.1797 21.9844 27.1797C21.2109 27.1797 20.5977 27.2422 20.1445 27.3672C19.6992 27.5 19.2695 27.5664 18.8555 27.5664ZM10.1133 28.5156C8.86328 28.5156 7.86719 28.2773 7.125 27.8008C6.38281 27.3242 6.01172 26.6914 6.01172 25.9023C6.01172 25.3789 6.19922 24.9609 6.57422 24.6484C6.94922 24.3281 7.46484 24.168 8.12109 24.168C8.45703 24.168 8.78125 24.1836 9.09375 24.2148C9.40625 24.2383 9.69531 24.2656 9.96094 24.2969C10.2266 24.3281 10.4531 24.3438 10.6406 24.3438C10.7656 24.3438 10.875 24.3398 10.9688 24.332C11.0625 24.3242 11.1523 24.3164 11.2383 24.3086L14.8477 27.332C14.2773 27.7148 13.6211 28.0078 12.8789 28.2109C12.1445 28.4141 11.2227 28.5156 10.1133 28.5156ZM30.7852 16.5859C31.0664 16.5859 31.3086 16.4766 31.5117 16.2578C31.7227 16.0391 31.8281 15.7852 31.8281 15.4961C31.8281 15.2148 31.7266 14.9766 31.5234 14.7812C31.3281 14.5781 31.0859 14.4766 30.7969 14.4766C30.5078 14.4766 30.2617 14.5859 30.0586 14.8047C29.8555 15.0156 29.7539 15.2656 29.7539 15.5547C29.7539 15.8281 29.8516 16.0703 30.0469 16.2812C30.25 16.4844 30.4961 16.5859 30.7852 16.5859Z" fill="#00A2FF"/>
</svg>
