<svg width="34" height="32" viewBox="0 0 34 32" fill="none" xmlns="http://www.w3.org/2000/svg">
<path d="M7.30859 15.6719C6.80078 15.6719 6.35547 15.5312 5.97266 15.25C5.58984 14.9688 5.28516 14.6133 5.05859 14.1836C4.83203 13.7461 4.69922 13.2891 4.66016 12.8125C4.62891 12.3281 4.70703 11.8789 4.89453 11.4648C5.08984 11.043 5.41016 10.7109 5.85547 10.4688C7.55078 9.58594 9.24609 8.78906 10.9414 8.07812C12.6445 7.36719 14.25 6.80469 15.7578 6.39062C17.2656 5.96875 18.5859 5.75781 19.7188 5.75781C20.6172 5.75781 21.4219 5.89844 22.1328 6.17969C22.8516 6.45312 23.5273 6.84766 24.1602 7.36328C24.8008 7.87109 25.4492 8.48828 26.1055 9.21484C26.6914 9.87109 27.1797 10.4453 27.5703 10.9375C27.9609 11.4219 28.2773 11.8477 28.5195 12.2148C28.7695 12.582 28.9805 12.9062 29.1523 13.1875C29.332 13.4844 29.3867 13.7734 29.3164 14.0547C29.2461 14.3281 29.0938 14.5508 28.8594 14.7227C28.625 14.8867 28.3555 14.9688 28.0508 14.9688C27.7539 14.9609 27.4727 14.832 27.207 14.582L24.1953 11.8281C23.6172 11.2969 23.0469 10.9062 22.4844 10.6562C21.9219 10.3984 21.3281 10.2695 20.7031 10.2695C20.1172 10.2695 19.4336 10.3984 18.6523 10.6562C17.8711 10.9141 17.043 11.25 16.168 11.6641C15.293 12.0703 14.4141 12.5039 13.5312 12.9648C12.6484 13.4258 11.8047 13.8633 11 14.2773C10.1953 14.6914 9.47266 15.0273 8.83203 15.2852C8.19141 15.543 7.68359 15.6719 7.30859 15.6719ZM26.7969 20.6289C25.8281 21.668 24.5742 22.4727 23.0352 23.043C21.4961 23.6055 19.8242 23.8867 18.0195 23.8867C16.2695 23.8867 14.5352 23.6758 12.8164 23.2539C11.1055 22.8242 9.45703 22.1875 7.87109 21.3438C7.55859 21.1719 7.34375 20.9609 7.22656 20.7109C7.11719 20.4609 7.08594 20.2109 7.13281 19.9609C7.17969 19.7031 7.28906 19.4805 7.46094 19.293C7.63281 19.1055 7.85156 18.9883 8.11719 18.9414C8.38281 18.8867 8.67188 18.9453 8.98438 19.1172C10.4219 19.8984 11.8906 20.4766 13.3906 20.8516C14.8984 21.2266 16.4414 21.4141 18.0195 21.4141C19.4414 21.4141 20.7656 21.1992 21.9922 20.7695C23.2188 20.332 24.207 19.7422 24.957 19C25.2148 18.7422 25.4766 18.5977 25.7422 18.5664C26.0078 18.5273 26.25 18.5664 26.4688 18.6836C26.6953 18.793 26.8711 18.957 26.9961 19.1758C27.1289 19.3867 27.1836 19.6211 27.1602 19.8789C27.1445 20.1367 27.0234 20.3867 26.7969 20.6289ZM9.82812 21.7422L11.6797 22.3281C11.5781 22.5078 11.4414 22.75 11.2695 23.0547C11.1055 23.3516 10.9141 23.668 10.6953 24.0039C10.4844 24.332 10.2539 24.6367 10.0039 24.918C9.80859 25.1289 9.60156 25.2539 9.38281 25.293C9.17188 25.332 8.97266 25.3086 8.78516 25.2227C8.60547 25.1367 8.46094 25.0117 8.35156 24.8477C8.25 24.6758 8.20703 24.4844 8.22266 24.2734C8.24609 24.0625 8.35547 23.8555 8.55078 23.6523C8.76172 23.4336 8.98828 23.1367 9.23047 22.7617C9.47266 22.3789 9.67188 22.0391 9.82812 21.7422ZM13.8945 22.8086L15.6875 23.0898C15.6562 23.2852 15.6055 23.5625 15.5352 23.9219C15.4727 24.2812 15.3867 24.668 15.2773 25.082C15.168 25.4961 15.043 25.8789 14.9023 26.2305C14.793 26.4961 14.6445 26.6836 14.457 26.793C14.2695 26.9102 14.0703 26.9609 13.8594 26.9453C13.6562 26.9375 13.4766 26.8711 13.3203 26.7461C13.1719 26.6211 13.0703 26.4531 13.0156 26.2422C12.9609 26.0391 12.9922 25.8047 13.1094 25.5391C13.2109 25.3047 13.3398 24.9297 13.4961 24.4141C13.6523 23.8984 13.7852 23.3633 13.8945 22.8086ZM18.2656 23.125L20.0469 22.7852C20.0781 22.9727 20.1133 23.25 20.1523 23.6172C20.1992 23.9766 20.2305 24.3711 20.2461 24.8008C20.2695 25.2227 20.2773 25.625 20.2695 26.0078C20.2617 26.3047 20.1914 26.5391 20.0586 26.7109C19.9258 26.8828 19.7578 26.9961 19.5547 27.0508C19.3594 27.1055 19.168 27.1016 18.9805 27.0391C18.793 26.9766 18.6367 26.8594 18.5117 26.6875C18.3867 26.5156 18.332 26.2812 18.3477 25.9844C18.3633 25.7266 18.375 25.3281 18.3828 24.7891C18.3906 24.2422 18.3516 23.6875 18.2656 23.125ZM22.4258 22.3984L23.9492 21.4375C24.1992 21.7812 24.4336 22.2695 24.6523 22.9023C24.8789 23.5273 25.0742 24.1914 25.2383 24.8945C25.3086 25.1523 25.293 25.3789 25.1914 25.5742C25.0977 25.7695 24.9609 25.918 24.7812 26.0195C24.6094 26.1289 24.4219 26.1797 24.2188 26.1719C24.0234 26.1719 23.8438 26.1055 23.6797 25.9727C23.5234 25.8477 23.4219 25.6445 23.375 25.3633C23.3203 25.0977 23.2305 24.6953 23.1055 24.1562C22.9805 23.6094 22.7539 23.0234 22.4258 22.3984Z" fill="black" fill-opacity="0.2"/>
</svg>
