<svg width="22" height="20" viewBox="0 0 22 20" fill="none" xmlns="http://www.w3.org/2000/svg">
<path d="M0.6875 16.2109V4.51562C0.6875 4.3125 0.747396 4.15104 0.867188 4.03125C0.992188 3.90625 1.15625 3.84375 1.35938 3.84375H20.6406C20.8438 3.84375 21.0052 3.90625 21.125 4.03125C21.25 4.15104 21.3125 4.3125 21.3125 4.51562V16.2109C21.3125 16.4089 21.25 16.5703 21.125 16.6953C21.0052 16.8203 20.8438 16.8828 20.6406 16.8828H1.35938C1.15625 16.8828 0.992188 16.8203 0.867188 16.6953C0.747396 16.5703 0.6875 16.4089 0.6875 16.2109ZM2.3125 14.8203C2.3125 15.112 2.45573 15.2578 2.74219 15.2578H19.2578C19.5443 15.2578 19.6875 15.112 19.6875 14.8203V5.91406C19.6875 5.6224 19.5443 5.47656 19.2578 5.47656H2.74219C2.45573 5.47656 2.3125 5.6224 2.3125 5.91406V14.8203ZM3.17188 14.2188V6.50781C3.17188 6.39323 3.23177 6.33594 3.35156 6.33594H9.17969C8.80469 6.74219 8.51042 7.28906 8.29688 7.97656C8.08333 8.66406 7.97656 9.45573 7.97656 10.3516C7.97656 11.2474 8.08333 12.0417 8.29688 12.7344C8.51562 13.4271 8.8151 13.9792 9.19531 14.3906H3.35156C3.23177 14.3906 3.17188 14.3333 3.17188 14.2188ZM8.96875 10.3516C8.96875 9.57031 9.05208 8.89323 9.21875 8.32031C9.38542 7.74219 9.61979 7.29427 9.92188 6.97656C10.224 6.65885 10.5729 6.5 10.9688 6.5C11.3802 6.5 11.7422 6.65885 12.0547 6.97656C12.3672 7.29427 12.6094 7.74219 12.7812 8.32031C12.9531 8.89323 13.0391 9.57031 13.0391 10.3516C13.0391 11.1328 12.9531 11.8125 12.7812 12.3906C12.6094 12.9688 12.3672 13.4167 12.0547 13.7344C11.7422 14.0521 11.3802 14.2109 10.9688 14.2109C10.5729 14.2109 10.224 14.0521 9.92188 13.7344C9.61979 13.4167 9.38542 12.9688 9.21875 12.3906C9.05208 11.8125 8.96875 11.1328 8.96875 10.3516ZM12.7891 14.3906C13.1745 13.9792 13.4766 13.4271 13.6953 12.7344C13.9141 12.0417 14.0234 11.2474 14.0234 10.3516C14.0234 9.45573 13.9141 8.66406 13.6953 7.97656C13.4818 7.28906 13.1823 6.74219 12.7969 6.33594H18.6484C18.763 6.33594 18.8203 6.39323 18.8203 6.50781V14.2188C18.8203 14.3333 18.763 14.3906 18.6484 14.3906H12.7891Z" fill="#00A2FF"/>
</svg>
