<svg width="32" height="32" viewBox="0 0 32 32" fill="none" xmlns="http://www.w3.org/2000/svg">
<path d="M6.19141 16.5391C6.19141 16.1797 6.32031 15.8711 6.57812 15.6133C6.83594 15.3477 7.14453 15.2148 7.50391 15.2148H14.6875V8.04297C14.6875 7.68359 14.8164 7.375 15.0742 7.11719C15.332 6.85938 15.6406 6.73047 16 6.73047C16.3672 6.73047 16.6797 6.85938 16.9375 7.11719C17.1953 7.375 17.3242 7.68359 17.3242 8.04297V15.2148H24.4961C24.8555 15.2148 25.1641 15.3477 25.4219 15.6133C25.6797 15.8711 25.8086 16.1797 25.8086 16.5391C25.8086 16.9062 25.6797 17.2188 25.4219 17.4766C25.1641 17.7266 24.8555 17.8516 24.4961 17.8516H17.3242V25.0469C17.3242 25.3984 17.1953 25.7031 16.9375 25.9609C16.6797 26.2188 16.3672 26.3477 16 26.3477C15.6406 26.3477 15.332 26.2188 15.0742 25.9609C14.8164 25.7031 14.6875 25.3984 14.6875 25.0469V17.8516H7.50391C7.14453 17.8516 6.83594 17.7266 6.57812 17.4766C6.32031 17.2188 6.19141 16.9062 6.19141 16.5391Z" fill="white"/>
</svg>
