<svg width="25" height="24" viewBox="0 0 25 24" fill="none" xmlns="http://www.w3.org/2000/svg">
<path d="M20.4844 9.3125C20.4844 10.1458 20.3411 10.8984 20.0547 11.5703C19.7734 12.2422 19.388 12.776 18.8984 13.1719C18.4141 13.5677 17.8672 13.7656 17.2578 13.7656H16.1797C16.4297 13.4375 16.6641 13.0599 16.8828 12.6328C17.1016 12.2057 17.2812 11.724 17.4219 11.1875C17.5677 10.651 17.6432 10.0547 17.6484 9.39844C17.6693 8.48177 17.5104 7.63542 17.1719 6.85938C16.8333 6.08333 16.3125 5.42708 15.6094 4.89062H16.9688C17.6354 4.89062 18.2318 5.09115 18.7578 5.49219C19.2891 5.89323 19.7083 6.42969 20.0156 7.10156C20.3281 7.76823 20.4844 8.50521 20.4844 9.3125ZM16.5312 9.375C16.5208 10 16.4583 10.5625 16.3438 11.0625C16.2292 11.5625 16.0573 12.0339 15.8281 12.4766C15.599 12.9193 15.3099 13.3724 14.9609 13.8359C14.3568 14.6432 13.6901 15.5234 12.9609 16.4766C12.2318 17.4245 11.5703 18.4766 10.9766 19.6328C10.8099 19.9557 10.638 20.2083 10.4609 20.3906C10.2839 20.5729 10.0495 20.6641 9.75781 20.6641C9.42448 20.6641 9.14583 20.5521 8.92188 20.3281C8.69792 20.1094 8.58594 19.8047 8.58594 19.4141C8.58594 19.0547 8.65365 18.6719 8.78906 18.2656C8.92448 17.8594 9.08073 17.4531 9.25781 17.0469C9.4349 16.6406 9.58854 16.2578 9.71875 15.8984C9.85417 15.5391 9.92188 15.2292 9.92188 14.9688C9.92188 14.6875 9.82031 14.4688 9.61719 14.3125C9.41406 14.151 9.14062 14.0703 8.79688 14.0703H5.97656C5.70052 14.0703 5.45312 14.0052 5.23438 13.875C5.01562 13.7396 4.84115 13.5625 4.71094 13.3438C4.58073 13.1198 4.51562 12.8724 4.51562 12.6016C4.51562 12.3724 4.55208 12.1667 4.625 11.9844C4.69792 11.8021 4.79688 11.6589 4.92188 11.5547C5.03125 11.4557 5.03906 11.3646 4.94531 11.2812C4.84635 11.1771 4.76562 11.0365 4.70312 10.8594C4.64583 10.6771 4.61719 10.4896 4.61719 10.2969C4.61719 10.0312 4.67448 9.79167 4.78906 9.57812C4.90365 9.35938 5.05469 9.19531 5.24219 9.08594C5.35677 9.01302 5.3776 8.92188 5.30469 8.8125C5.11719 8.57292 5.02344 8.27083 5.02344 7.90625C5.02344 7.59375 5.10938 7.32292 5.28125 7.09375C5.45833 6.86458 5.67188 6.6901 5.92188 6.57031C6.01042 6.53385 6.02604 6.46875 5.96875 6.375C5.92188 6.28646 5.88021 6.1849 5.84375 6.07031C5.8125 5.95573 5.79688 5.82292 5.79688 5.67188C5.79688 5.29167 5.92448 4.99219 6.17969 4.77344C6.4401 4.54948 6.73958 4.39583 7.07812 4.3125C7.30208 4.25 7.60417 4.20312 7.98438 4.17188C8.36979 4.13542 8.82031 4.11979 9.33594 4.125L10.4219 4.13281C11.3594 4.14323 12.2057 4.28125 12.9609 4.54688C13.7161 4.8125 14.362 5.18229 14.8984 5.65625C15.4349 6.125 15.8438 6.67708 16.125 7.3125C16.4115 7.94271 16.5469 8.63021 16.5312 9.375Z" fill="white"/>
</svg>
