<svg width="24" height="24" viewBox="0 0 24 24" fill="none" xmlns="http://www.w3.org/2000/svg">
<path d="M7.55469 20.9375C7.24219 20.9375 6.99479 20.8359 6.8125 20.6328C6.63542 20.4349 6.54688 20.1615 6.54688 19.8125V6.1875C6.54688 5.41146 6.74479 4.82292 7.14062 4.42188C7.53646 4.02083 8.11979 3.82031 8.89062 3.82031H15.1016C15.8724 3.82031 16.4557 4.02083 16.8516 4.42188C17.2474 4.82292 17.4453 5.41146 17.4453 6.1875V19.8125C17.4453 20.1615 17.3542 20.4349 17.1719 20.6328C16.9948 20.8359 16.7526 20.9375 16.4453 20.9375C16.2318 20.9375 16.0365 20.8724 15.8594 20.7422C15.6823 20.6172 15.4245 20.3906 15.0859 20.0625L12.0625 17.0781C12.0208 17.0312 11.9766 17.0312 11.9297 17.0781L8.91406 20.0625C8.57552 20.3906 8.3151 20.6172 8.13281 20.7422C7.95573 20.8724 7.76302 20.9375 7.55469 20.9375Z" fill="white"/>
</svg>
