<svg width="25" height="24" viewBox="0 0 25 24" fill="none" xmlns="http://www.w3.org/2000/svg">
<path d="M6.03906 11.7812C5.70052 11.7812 5.40365 11.6875 5.14844 11.5C4.89323 11.3125 4.6901 11.0755 4.53906 10.7891C4.38802 10.4974 4.29948 10.1927 4.27344 9.875C4.2526 9.55208 4.30469 9.2526 4.42969 8.97656C4.5599 8.69531 4.77344 8.47396 5.07031 8.3125C6.20052 7.72396 7.33073 7.19271 8.46094 6.71875C9.59635 6.24479 10.6667 5.86979 11.6719 5.59375C12.6771 5.3125 13.5573 5.17188 14.3125 5.17188C14.9115 5.17188 15.4479 5.26562 15.9219 5.45312C16.401 5.63542 16.8516 5.89844 17.2734 6.24219C17.7005 6.58073 18.1328 6.99219 18.5703 7.47656C18.9609 7.91406 19.2865 8.29688 19.5469 8.625C19.8073 8.94792 20.0182 9.23177 20.1797 9.47656C20.3464 9.72135 20.487 9.9375 20.6016 10.125C20.7214 10.3229 20.7578 10.5156 20.7109 10.7031C20.6641 10.8854 20.5625 11.0339 20.4062 11.1484C20.25 11.2578 20.0703 11.3125 19.8672 11.3125C19.6693 11.3073 19.4818 11.2214 19.3047 11.0547L17.2969 9.21875C16.9115 8.86458 16.5312 8.60417 16.1562 8.4375C15.7812 8.26562 15.3854 8.17969 14.9688 8.17969C14.5781 8.17969 14.1224 8.26562 13.6016 8.4375C13.0807 8.60938 12.5286 8.83333 11.9453 9.10938C11.362 9.38021 10.776 9.66927 10.1875 9.97656C9.59896 10.2839 9.03646 10.5755 8.5 10.8516C7.96354 11.1276 7.48177 11.3516 7.05469 11.5234C6.6276 11.6953 6.28906 11.7812 6.03906 11.7812ZM19.0312 15.0859C18.3854 15.7786 17.5495 16.3151 16.5234 16.6953C15.4974 17.0703 14.3828 17.2578 13.1797 17.2578C12.013 17.2578 10.8568 17.1172 9.71094 16.8359C8.57031 16.5495 7.47135 16.125 6.41406 15.5625C6.20573 15.4479 6.0625 15.3073 5.98438 15.1406C5.91146 14.974 5.89062 14.8073 5.92188 14.6406C5.95312 14.4688 6.02604 14.3203 6.14062 14.1953C6.25521 14.0703 6.40104 13.9922 6.57812 13.9609C6.75521 13.9245 6.94792 13.9635 7.15625 14.0781C8.11458 14.599 9.09375 14.9844 10.0938 15.2344C11.099 15.4844 12.1276 15.6094 13.1797 15.6094C14.1276 15.6094 15.0104 15.4661 15.8281 15.1797C16.6458 14.888 17.3047 14.4948 17.8047 14C17.9766 13.8281 18.151 13.7318 18.3281 13.7109C18.5052 13.6849 18.6667 13.7109 18.8125 13.7891C18.9635 13.862 19.0807 13.9714 19.1641 14.1172C19.2526 14.2578 19.2891 14.4141 19.2734 14.5859C19.263 14.7578 19.1823 14.9245 19.0312 15.0859ZM7.71875 15.8281L8.95312 16.2188C8.88542 16.3385 8.79427 16.5 8.67969 16.7031C8.57031 16.901 8.44271 17.112 8.29688 17.3359C8.15625 17.5547 8.0026 17.7578 7.83594 17.9453C7.70573 18.0859 7.56771 18.1693 7.42188 18.1953C7.28125 18.2214 7.14844 18.2057 7.02344 18.1484C6.90365 18.0911 6.80729 18.0078 6.73438 17.8984C6.66667 17.7839 6.63802 17.6562 6.64844 17.5156C6.66406 17.375 6.73698 17.237 6.86719 17.1016C7.00781 16.9557 7.15885 16.7578 7.32031 16.5078C7.48177 16.2526 7.61458 16.026 7.71875 15.8281ZM10.4297 16.5391L11.625 16.7266C11.6042 16.8568 11.5703 17.0417 11.5234 17.2812C11.4818 17.5208 11.4245 17.7786 11.3516 18.0547C11.2786 18.3307 11.1953 18.5859 11.1016 18.8203C11.0286 18.9974 10.9297 19.1224 10.8047 19.1953C10.6797 19.2734 10.5469 19.3073 10.4062 19.2969C10.2708 19.2917 10.151 19.2474 10.0469 19.1641C9.94792 19.0807 9.88021 18.9688 9.84375 18.8281C9.80729 18.6927 9.82812 18.5365 9.90625 18.3594C9.97396 18.2031 10.0599 17.9531 10.1641 17.6094C10.2682 17.2656 10.3568 16.9089 10.4297 16.5391ZM13.3438 16.75L14.5312 16.5234C14.5521 16.6484 14.5755 16.8333 14.6016 17.0781C14.6328 17.3177 14.6536 17.5807 14.6641 17.8672C14.6797 18.1484 14.6849 18.4167 14.6797 18.6719C14.6745 18.8698 14.6276 19.026 14.5391 19.1406C14.4505 19.2552 14.3385 19.3307 14.2031 19.3672C14.0729 19.4036 13.9453 19.401 13.8203 19.3594C13.6953 19.3177 13.5911 19.2396 13.5078 19.125C13.4245 19.0104 13.388 18.8542 13.3984 18.6562C13.4089 18.4844 13.4167 18.2188 13.4219 17.8594C13.4271 17.4948 13.401 17.125 13.3438 16.75ZM16.1172 16.2656L17.1328 15.625C17.2995 15.8542 17.4557 16.1797 17.6016 16.6016C17.7526 17.0182 17.8828 17.4609 17.9922 17.9297C18.0391 18.1016 18.0286 18.2526 17.9609 18.3828C17.8984 18.513 17.8073 18.612 17.6875 18.6797C17.5729 18.7526 17.4479 18.7865 17.3125 18.7812C17.1823 18.7812 17.0625 18.737 16.9531 18.6484C16.849 18.5651 16.7812 18.4297 16.75 18.2422C16.7135 18.0651 16.6536 17.7969 16.5703 17.4375C16.487 17.0729 16.3359 16.6823 16.1172 16.2656Z" fill="#00A2FF"/>
</svg>
