<svg width="32" height="32" viewBox="0 0 32 32" fill="none" xmlns="http://www.w3.org/2000/svg">
<path d="M3.32031 9.77734V7.05859C3.32031 6.69141 3.44531 6.38672 3.69531 6.14453C3.95312 5.90234 4.25781 5.78516 4.60938 5.79297C4.96875 5.79297 5.27344 5.91406 5.52344 6.15625C5.78125 6.39062 5.91016 6.69141 5.91016 7.05859V11.1016H4.67969C4.27344 11.1016 3.94531 10.9805 3.69531 10.7383C3.44531 10.4961 3.32031 10.1758 3.32031 9.77734ZM6.44922 3.95312H22.3633C23.6211 3.95312 24.5703 4.27734 25.2109 4.92578C25.8516 5.57422 26.1719 6.53125 26.1719 7.79688V20.1016H14.582C13.7227 20.1016 13.0859 20.3242 12.6719 20.7695C12.2578 21.207 12.0508 21.8477 12.0508 22.6914V26.0547C12.0508 26.8359 11.8477 27.4375 11.4414 27.8594C11.043 28.2812 10.5273 28.4922 9.89453 28.4922C9.22266 28.4922 8.67188 28.2734 8.24219 27.8359C7.82031 27.4062 7.60938 26.7852 7.60938 25.9727V6.29688C7.60938 5.69531 7.52344 5.21484 7.35156 4.85547C7.17969 4.48828 6.87891 4.1875 6.44922 3.95312ZM12.2734 10.1758C12.2734 10.3867 12.3438 10.5664 12.4844 10.7148C12.6328 10.8555 12.8164 10.9258 13.0352 10.9258H20.9922C21.2109 10.9258 21.3906 10.8555 21.5312 10.7148C21.6719 10.5664 21.7422 10.3867 21.7422 10.1758C21.7422 9.96484 21.6719 9.78906 21.5312 9.64844C21.3906 9.50781 21.2109 9.4375 20.9922 9.4375H13.0352C12.8164 9.4375 12.6328 9.50781 12.4844 9.64844C12.3438 9.78906 12.2734 9.96484 12.2734 10.1758ZM12.2734 14.207C12.2734 14.4102 12.3438 14.582 12.4844 14.7227C12.6328 14.8633 12.8164 14.9336 13.0352 14.9336H17.2539C17.4727 14.9336 17.6523 14.8633 17.793 14.7227C17.9336 14.582 18.0039 14.4102 18.0039 14.207C18.0039 13.9883 17.9336 13.8086 17.793 13.668C17.6523 13.5195 17.4727 13.4453 17.2539 13.4453H13.0352C12.8164 13.4453 12.6328 13.5195 12.4844 13.668C12.3438 13.8086 12.2734 13.9883 12.2734 14.207ZM12.5898 29.125C13.0664 28.6406 13.3789 28.1016 13.5273 27.5078C13.6836 26.9219 13.7617 26.2773 13.7617 25.5742V23.1367C13.7617 22.7383 13.8867 22.418 14.1367 22.1758C14.3867 21.9336 14.7148 21.8125 15.1211 21.8125H27.332C27.7461 21.8125 28.0742 21.9336 28.3164 22.1758C28.5586 22.418 28.6797 22.7383 28.6797 23.1367V25.375C28.6797 26.1719 28.5195 26.8516 28.1992 27.4141C27.8867 27.9766 27.4414 28.4023 26.8633 28.6914C26.2852 28.9805 25.6094 29.125 24.8359 29.125H12.5898Z" fill="#00A2FF"/>
</svg>
