<svg width="20" height="20" viewBox="0 0 20 20" fill="none" xmlns="http://www.w3.org/2000/svg">
<path d="M5.82031 18.8203C4.99219 18.8203 4.36458 18.6042 3.9375 18.1719C3.51042 17.7448 3.29688 17.1146 3.29688 16.2812V4.47656C3.29688 3.63281 3.51042 2.99479 3.9375 2.5625C4.36458 2.13021 4.9974 1.91406 5.83594 1.91406H14.1562C14.9948 1.91406 15.6276 2.13281 16.0547 2.57031C16.4818 3.0026 16.6953 3.63802 16.6953 4.47656V13.1484C16.6953 13.5443 16.6276 13.8542 16.4922 14.0781C16.3568 14.3021 16.1927 14.5 16 14.6719C15.6719 14.9844 15.4688 15.3229 15.3906 15.6875C15.3177 16.0469 15.349 16.3802 15.4844 16.6875C15.6198 16.9948 15.849 17.2188 16.1719 17.3594C16.3177 17.4219 16.4427 17.5156 16.5469 17.6406C16.651 17.7708 16.7031 17.9219 16.7031 18.0938C16.7031 18.2969 16.6328 18.4688 16.4922 18.6094C16.3568 18.75 16.1849 18.8203 15.9766 18.8203H5.82031ZM6.01562 17.3672H14.2109C14.0026 17.013 13.8906 16.6224 13.875 16.1953C13.8594 15.7734 13.9453 15.3568 14.1328 14.9453C14.0599 14.9557 13.9766 14.9609 13.8828 14.9609H6.07812C5.66667 14.9609 5.34115 15.0729 5.10156 15.2969C4.86719 15.5208 4.75 15.8073 4.75 16.1562C4.75 16.526 4.85677 16.8203 5.07031 17.0391C5.28385 17.2578 5.59896 17.3672 6.01562 17.3672ZM5.71094 13.7031C5.84115 13.7031 5.95312 13.6562 6.04688 13.5625C6.14062 13.4688 6.1875 13.3568 6.1875 13.2266V3.69531C6.1875 3.5599 6.14062 3.44792 6.04688 3.35938C5.95312 3.26562 5.84115 3.21875 5.71094 3.21875C5.58594 3.21875 5.47656 3.26562 5.38281 3.35938C5.28906 3.44792 5.24219 3.5599 5.24219 3.69531V13.2266C5.24219 13.3568 5.28906 13.4688 5.38281 13.5625C5.47656 13.6562 5.58594 13.7031 5.71094 13.7031Z" fill="#00A2FF"/>
</svg>
