<svg width="32" height="32" viewBox="0 0 32 32" fill="none" xmlns="http://www.w3.org/2000/svg">
<path d="M14.9219 28.9844C14.5781 28.9844 14.2852 28.8867 14.043 28.6914C13.8008 28.5039 13.6367 28.2383 13.5508 27.8945L12.9648 25.3984C12.7617 25.3281 12.5625 25.2539 12.3672 25.1758C12.1797 25.1055 12 25.0312 11.8281 24.9531L9.64844 26.2773C9.35938 26.457 9.05859 26.5312 8.74609 26.5C8.43359 26.4766 8.15625 26.3438 7.91406 26.1016L6.42578 24.6133C6.18359 24.3711 6.04688 24.0898 6.01562 23.7695C5.98438 23.4414 6.0625 23.1328 6.25 22.8438L7.57422 20.6875C7.49609 20.5078 7.41797 20.3281 7.33984 20.1484C7.26172 19.9609 7.19531 19.7734 7.14062 19.5859L4.63281 18.9883C4.28906 18.9102 4.01953 18.75 3.82422 18.5078C3.63672 18.2656 3.54297 17.9688 3.54297 17.6172V15.5195C3.54297 15.1758 3.63672 14.8828 3.82422 14.6406C4.01953 14.3984 4.28906 14.2383 4.63281 14.1602L7.11719 13.5625C7.17969 13.3516 7.25 13.1523 7.32812 12.9648C7.40625 12.7773 7.48047 12.6016 7.55078 12.4375L6.22656 10.2461C6.04688 9.94922 5.96875 9.64844 5.99219 9.34375C6.01562 9.03125 6.15234 8.75391 6.40234 8.51172L7.91406 7.01172C8.15625 6.76953 8.42578 6.63281 8.72266 6.60156C9.01953 6.5625 9.3125 6.62891 9.60156 6.80078L11.8164 8.16016C11.9883 8.07422 12.1719 7.99219 12.3672 7.91406C12.5625 7.83594 12.7617 7.76172 12.9648 7.69141L13.5508 5.18359C13.6367 4.84766 13.8008 4.58203 14.043 4.38672C14.2852 4.18359 14.5781 4.08203 14.9219 4.08203H17.0664C17.418 4.08203 17.7109 4.18359 17.9453 4.38672C18.1875 4.58203 18.3516 4.84766 18.4375 5.18359L19.0234 7.71484C19.2344 7.78516 19.4336 7.85937 19.6211 7.9375C19.8164 8.00781 19.9961 8.08594 20.1602 8.17188L22.3867 6.80078C22.6758 6.62891 22.9648 6.56641 23.2539 6.61328C23.5508 6.65234 23.8203 6.78125 24.0625 7L25.5977 8.51172C25.8477 8.75391 25.9805 9.03125 25.9961 9.34375C26.0195 9.64844 25.9414 9.94922 25.7617 10.2461L24.4258 12.4375C24.4961 12.6016 24.5703 12.7773 24.6484 12.9648C24.7266 13.1523 24.8008 13.3516 24.8711 13.5625L27.3672 14.1602C27.7031 14.2383 27.9648 14.3984 28.1523 14.6406C28.3477 14.8828 28.4453 15.1758 28.4453 15.5195V17.6172C28.4453 17.9688 28.3477 18.2656 28.1523 18.5078C27.9648 18.75 27.7031 18.9102 27.3672 18.9883L24.8477 19.5859C24.7852 19.7734 24.7188 19.9609 24.6484 20.1484C24.5781 20.3281 24.4961 20.5078 24.4023 20.6875L25.7383 22.8438C25.9258 23.1328 26.0039 23.4414 25.9727 23.7695C25.9492 24.0898 25.8164 24.3711 25.5742 24.6133L24.0742 26.1016C23.832 26.3438 23.5547 26.4766 23.2422 26.5C22.9297 26.5312 22.6289 26.457 22.3398 26.2773L20.1602 24.9531C19.9883 25.0312 19.8047 25.1055 19.6094 25.1758C19.4219 25.2539 19.2266 25.3281 19.0234 25.3984L18.4375 27.8945C18.3516 28.2383 18.1875 28.5039 17.9453 28.6914C17.7109 28.8867 17.418 28.9844 17.0664 28.9844H14.9219ZM16 20.6406C16.75 20.6406 17.4336 20.457 18.0508 20.0898C18.6758 19.7227 19.1719 19.2266 19.5391 18.6016C19.9062 17.9766 20.0898 17.2891 20.0898 16.5391C20.0898 15.7891 19.9062 15.1016 19.5391 14.4766C19.1719 13.8516 18.6758 13.3555 18.0508 12.9883C17.4336 12.6211 16.75 12.4375 16 12.4375C15.2422 12.4375 14.5508 12.6211 13.9258 12.9883C13.3086 13.3555 12.8164 13.8516 12.4492 14.4766C12.082 15.1016 11.8984 15.7891 11.8984 16.5391C11.8984 17.2891 12.082 17.9766 12.4492 18.6016C12.8164 19.2266 13.3086 19.7227 13.9258 20.0898C14.5508 20.457 15.2422 20.6406 16 20.6406Z" fill="#00A2FF"/>
</svg>
