<svg width="34" height="32" viewBox="0 0 34 32" fill="none" xmlns="http://www.w3.org/2000/svg">
<path d="M17.3882 15.7305L6.19678 9.33203C6.29053 9.23047 6.39209 9.13281 6.50146 9.03906C6.61865 8.94531 6.73975 8.86328 6.86475 8.79297L15.9585 3.54297C16.4116 3.27734 16.8882 3.14453 17.3882 3.14453C17.896 3.14453 18.3804 3.27734 18.8413 3.54297L27.9233 8.79297C28.0562 8.86328 28.1733 8.94531 28.2749 9.03906C28.3843 9.13281 28.4858 9.22656 28.5796 9.32031L17.3882 15.7305ZM16.3804 17.5234V29.7461C16.3022 29.7227 16.228 29.6914 16.1577 29.6523C16.0874 29.6133 16.021 29.5742 15.9585 29.5352L6.86475 24.2734C6.41162 24.0156 6.05615 23.668 5.79834 23.2305C5.54834 22.793 5.42334 22.3125 5.42334 21.7891V11.5117C5.42334 11.418 5.42725 11.3398 5.43506 11.2773L16.3804 17.5234ZM18.4194 17.5117L29.353 11.2539C29.353 11.293 29.353 11.3359 29.353 11.3828C29.3608 11.4219 29.3647 11.4609 29.3647 11.5V21.7891C29.3647 22.3125 29.2358 22.793 28.978 23.2305C28.728 23.668 28.3804 24.0156 27.9351 24.2734L18.853 29.5352C18.7046 29.6289 18.5601 29.6992 18.4194 29.7461V17.5117Z" fill="black" fill-opacity="0.2"/>
</svg>
