<svg width="34" height="32" viewBox="0 0 34 32" fill="none" xmlns="http://www.w3.org/2000/svg">
<path d="M11.5735 10.457C11.886 10.457 12.1555 10.3477 12.3821 10.1289C12.6086 9.90234 12.7219 9.63281 12.7219 9.32031C12.7219 9.00781 12.6086 8.74219 12.3821 8.52344C12.1555 8.29688 11.886 8.18359 11.5735 8.18359C11.2688 8.18359 11.0032 8.29688 10.7766 8.52344C10.55 8.75 10.4368 9.01562 10.4368 9.32031C10.4368 9.63281 10.55 9.90234 10.7766 10.1289C11.0032 10.3477 11.2688 10.457 11.5735 10.457ZM11.5735 14.0898C11.886 14.0898 12.1555 13.9805 12.3821 13.7617C12.6086 13.5352 12.7219 13.2656 12.7219 12.9531C12.7219 12.6328 12.6086 12.3672 12.3821 12.1562C12.1555 11.9375 11.886 11.8281 11.5735 11.8281C11.261 11.8281 10.9915 11.9375 10.7649 12.1562C10.5461 12.375 10.4368 12.6406 10.4368 12.9531C10.4368 13.2656 10.5461 13.5352 10.7649 13.7617C10.9915 13.9805 11.261 14.0898 11.5735 14.0898ZM11.5735 17.8984C11.886 17.8984 12.1555 17.7852 12.3821 17.5586C12.6086 17.332 12.7219 17.0664 12.7219 16.7617C12.7219 16.4414 12.6086 16.1719 12.3821 15.9531C12.1555 15.7344 11.886 15.625 11.5735 15.625C11.2688 15.625 11.0032 15.7383 10.7766 15.9648C10.55 16.1836 10.4368 16.4492 10.4368 16.7617C10.4368 17.0664 10.55 17.332 10.7766 17.5586C11.0032 17.7852 11.2688 17.8984 11.5735 17.8984ZM15.0188 10.1289H22.3665C22.5774 10.1289 22.761 10.0508 22.9172 9.89453C23.0735 9.73047 23.1516 9.53906 23.1516 9.32031C23.1516 9.10938 23.0735 8.92578 22.9172 8.76953C22.761 8.60547 22.5774 8.52344 22.3665 8.52344H15.0188C14.8 8.52344 14.6125 8.60547 14.4563 8.76953C14.3 8.92578 14.2219 9.10938 14.2219 9.32031C14.2219 9.53906 14.3 9.73047 14.4563 9.89453C14.6125 10.0508 14.8 10.1289 15.0188 10.1289ZM15.0188 13.75H22.3665C22.5852 13.75 22.7688 13.6719 22.9172 13.5156C23.0735 13.3594 23.1516 13.1719 23.1516 12.9531C23.1516 12.7266 23.0735 12.5391 22.9172 12.3906C22.7688 12.2344 22.5852 12.1562 22.3665 12.1562H15.0188C14.7922 12.1562 14.6008 12.2344 14.4446 12.3906C14.2961 12.5391 14.2219 12.7266 14.2219 12.9531C14.2219 13.1719 14.2961 13.3594 14.4446 13.5156C14.6008 13.6719 14.7922 13.75 15.0188 13.75ZM15.0188 17.5469H22.3665C22.5774 17.5469 22.761 17.4688 22.9172 17.3125C23.0735 17.1562 23.1516 16.9727 23.1516 16.7617C23.1516 16.5352 23.0735 16.3438 22.9172 16.1875C22.7688 16.0312 22.5852 15.9531 22.3665 15.9531H15.0188C14.7922 15.9531 14.6008 16.0312 14.4446 16.1875C14.2961 16.3438 14.2219 16.5352 14.2219 16.7617C14.2219 16.9727 14.3 17.1562 14.4563 17.3125C14.6125 17.4688 14.8 17.5469 15.0188 17.5469ZM6.74536 25.3867V7.70312C6.74536 6.44531 7.06567 5.49219 7.7063 4.84375C8.34692 4.1875 9.29614 3.85938 10.554 3.85938H23.0344C24.2922 3.85938 25.2415 4.1875 25.8821 4.84375C26.5227 5.49219 26.843 6.44531 26.843 7.70312V25.3867C26.843 26.6523 26.5227 27.6094 25.8821 28.2578C25.2415 28.9062 24.2922 29.2305 23.0344 29.2305H10.554C9.29614 29.2305 8.34692 28.9062 7.7063 28.2578C7.06567 27.6094 6.74536 26.6523 6.74536 25.3867Z" fill="black" fill-opacity="0.2"/>
</svg>
