<svg width="32" height="32" viewBox="0 0 32 32" fill="none" xmlns="http://www.w3.org/2000/svg">
<path d="M7.53906 19.1406C7.01562 19.2812 6.54297 19.3164 6.12109 19.2461C5.70703 19.1758 5.35547 18.9805 5.06641 18.6602L0.964844 14.043C0.855469 13.9258 0.800781 13.7891 0.800781 13.6328C0.808594 13.4766 0.878906 13.3398 1.01172 13.2227L1.36328 12.8945C1.52734 12.7461 1.6875 12.6562 1.84375 12.625C2.00781 12.5859 2.17969 12.5977 2.35938 12.6602L9.71875 15.2734L6.4375 15.168L12.918 12.9414L12.6367 14.3711L5.81641 7.10547C5.66797 6.95703 5.61328 6.79688 5.65234 6.625C5.69141 6.45312 5.79297 6.33984 5.95703 6.28516L6.77734 6.03906C7.12891 5.9375 7.48047 5.96484 7.83203 6.12109L17.6406 10.75C17.9141 10.8828 18.1484 10.957 18.3438 10.9727C18.5469 10.9805 18.7695 10.9453 19.0117 10.8672L26.1016 8.44141C26.7891 8.20703 27.4766 8.09766 28.1641 8.11328C28.8594 8.12891 29.4648 8.26953 29.9805 8.53516C30.5039 8.80078 30.8633 9.19531 31.0586 9.71875C31.2617 10.2812 31.2344 10.8359 30.9766 11.3828C30.7188 11.9219 30.2969 12.4023 29.7109 12.8242C29.125 13.2461 28.4414 13.5625 27.6602 13.7734L7.53906 19.1406ZM3.15625 27.2383C2.84375 27.2383 2.57422 27.1211 2.34766 26.8867C2.12109 26.6602 2.00781 26.3906 2.00781 26.0781C2.00781 25.7578 2.12109 25.4844 2.34766 25.2578C2.57422 25.0391 2.84375 24.9297 3.15625 24.9297H28.5508C28.8711 24.9297 29.1445 25.0391 29.3711 25.2578C29.5977 25.4844 29.7109 25.7578 29.7109 26.0781C29.7109 26.3906 29.5977 26.6602 29.3711 26.8867C29.1445 27.1211 28.8711 27.2383 28.5508 27.2383H3.15625Z" fill="#00A2FF"/>
</svg>
