<svg width="200" height="200" viewBox="0 0 200 200" fill="none" xmlns="http://www.w3.org/2000/svg">
<path d="M124.652 70.283C125.79 69.0021 127.422 68.2692 129.136 68.2692H153.719C155.445 68.2692 156.36 70.3081 155.214 71.5979L75.3473 161.448C74.2086 162.729 72.5766 163.462 70.8628 163.462H46.28C44.5543 163.462 43.6387 161.423 44.7852 160.133L124.652 70.283Z" fill="url(#paint0_linear_2004_158)"/>
<path d="M97.3555 83.143L86.5211 70.9543C85.003 69.2463 82.8269 68.2692 80.5418 68.2692H40.157C36.7056 68.2692 34.8744 72.347 37.1674 74.9266L70.9132 112.891L97.3555 83.143Z" fill="url(#paint1_linear_2004_158)"/>
<path d="M78.8459 121.815L113.478 160.777C114.997 162.485 117.173 163.462 119.458 163.462H159.843C163.294 163.462 165.125 159.384 162.832 156.804L105.288 92.0673L78.8459 121.815Z" fill="url(#paint2_linear_2004_158)"/>
<path fill-rule="evenodd" clip-rule="evenodd" d="M99.9998 62.9808C137.969 62.9808 168.75 55.8777 168.75 47.1154C168.75 38.3532 137.969 31.25 99.9998 31.25C62.0301 31.25 31.2496 38.3532 31.2496 47.1154C31.2496 55.8777 62.0301 62.9808 99.9998 62.9808ZM99.9998 52.4039C127.747 52.4039 150.24 49.4442 150.24 45.7933C150.24 42.1424 127.747 39.1827 99.9998 39.1827C72.2527 39.1827 49.7593 42.1424 49.7593 45.7933C49.7593 49.4442 72.2527 52.4039 99.9998 52.4039Z" fill="url(#paint3_linear_2004_158)"/>
<defs>
<linearGradient id="paint0_linear_2004_158" x1="140.985" y1="68.2692" x2="59.014" y2="163.462" gradientUnits="userSpaceOnUse">
<stop stop-color="white"/>
<stop offset="0.276974" stop-color="#ACD7FF"/>
<stop offset="0.358455" stop-color="#89C6FF"/>
<stop offset="0.643641" stop-color="#89C6FF"/>
<stop offset="0.743452" stop-color="#ACD7FF"/>
<stop offset="1" stop-color="white"/>
</linearGradient>
<linearGradient id="paint1_linear_2004_158" x1="57.692" y1="68.2692" x2="140.985" y2="163.462" gradientUnits="userSpaceOnUse">
<stop stop-color="white"/>
<stop offset="1" stop-color="#ACD7FF"/>
</linearGradient>
<linearGradient id="paint2_linear_2004_158" x1="57.692" y1="68.2692" x2="140.985" y2="163.462" gradientUnits="userSpaceOnUse">
<stop stop-color="white"/>
<stop offset="1" stop-color="#ACD7FF"/>
</linearGradient>
<linearGradient id="paint3_linear_2004_158" x1="99.9998" y1="31.25" x2="99.9998" y2="62.9808" gradientUnits="userSpaceOnUse">
<stop stop-color="#ACD7FF"/>
<stop offset="1" stop-color="white"/>
</linearGradient>
</defs>
</svg>
