<svg width="34" height="32" viewBox="0 0 34 32" fill="none" xmlns="http://www.w3.org/2000/svg">
<path d="M10.3304 29.2305C9.08826 29.2305 8.14685 28.9062 7.50623 28.2578C6.8656 27.6172 6.54529 26.6719 6.54529 25.4219V7.71484C6.54529 6.44922 6.8656 5.49219 7.50623 4.84375C8.14685 4.19531 9.09607 3.87109 10.3539 3.87109H22.8344C24.0922 3.87109 25.0414 4.19922 25.682 4.85547C26.3226 5.50391 26.6429 6.45703 26.6429 7.71484V20.7227C26.6429 21.3164 26.5414 21.7812 26.3383 22.1172C26.1351 22.4531 25.889 22.75 25.6 23.0078C25.1078 23.4766 24.8031 23.9844 24.6859 24.5312C24.5765 25.0703 24.6234 25.5703 24.8265 26.0312C25.0297 26.4922 25.3734 26.8281 25.8578 27.0391C26.0765 27.1328 26.264 27.2734 26.4203 27.4609C26.5765 27.6562 26.6547 27.8828 26.6547 28.1406C26.6547 28.4453 26.5492 28.7031 26.3383 28.9141C26.1351 29.125 25.8773 29.2305 25.5648 29.2305H10.3304ZM10.6234 27.0508H22.9164C22.6039 26.5195 22.4359 25.9336 22.4125 25.293C22.389 24.6602 22.5179 24.0352 22.7992 23.418C22.6898 23.4336 22.5648 23.4414 22.4242 23.4414H10.7172C10.1 23.4414 9.61169 23.6094 9.25232 23.9453C8.90076 24.2812 8.72498 24.7109 8.72498 25.2344C8.72498 25.7891 8.88513 26.2305 9.20544 26.5586C9.52576 26.8867 9.99841 27.0508 10.6234 27.0508ZM10.1664 21.5547C10.3617 21.5547 10.5297 21.4844 10.6703 21.3438C10.8109 21.2031 10.8812 21.0352 10.8812 20.8398V6.54297C10.8812 6.33984 10.8109 6.17187 10.6703 6.03906C10.5297 5.89844 10.3617 5.82812 10.1664 5.82812C9.97888 5.82812 9.81482 5.89844 9.67419 6.03906C9.53357 6.17187 9.46326 6.33984 9.46326 6.54297V20.8398C9.46326 21.0352 9.53357 21.2031 9.67419 21.3438C9.81482 21.4844 9.97888 21.5547 10.1664 21.5547Z" fill="black" fill-opacity="0.2"/>
</svg>
