<svg width="24" height="24" viewBox="0 0 24 24" fill="none" xmlns="http://www.w3.org/2000/svg">
<path d="M11.9922 20.4297C10.8776 20.4297 9.83333 20.2188 8.85938 19.7969C7.88542 19.3802 7.02865 18.8021 6.28906 18.0625C5.54948 17.3229 4.96875 16.4661 4.54688 15.4922C4.13021 14.5182 3.92188 13.474 3.92188 12.3594C3.92188 11.2448 4.13021 10.2005 4.54688 9.22656C4.96875 8.2474 5.54948 7.39062 6.28906 6.65625C7.02865 5.91667 7.88542 5.33854 8.85938 4.92188C9.83333 4.5 10.8776 4.28906 11.9922 4.28906C13.1068 4.28906 14.151 4.5 15.125 4.92188C16.1042 5.33854 16.9635 5.91667 17.7031 6.65625C18.4427 7.39062 19.0208 8.2474 19.4375 9.22656C19.8594 10.2005 20.0703 11.2448 20.0703 12.3594C20.0703 13.474 19.8594 14.5182 19.4375 15.4922C19.0208 16.4661 18.4427 17.3229 17.7031 18.0625C16.9635 18.8021 16.1042 19.3802 15.125 19.7969C14.151 20.2188 13.1068 20.4297 11.9922 20.4297ZM12 13.7109C12.4635 13.7109 12.7005 13.4688 12.7109 12.9844L12.8359 9.0625C12.8464 8.82292 12.7708 8.6276 12.6094 8.47656C12.4479 8.32031 12.2422 8.24219 11.9922 8.24219C11.737 8.24219 11.5312 8.32031 11.375 8.47656C11.2188 8.6276 11.1458 8.82031 11.1562 9.05469L11.2656 12.9922C11.2812 13.4714 11.526 13.7109 12 13.7109ZM12 16.3984C12.2604 16.3984 12.4844 16.3151 12.6719 16.1484C12.8594 15.9818 12.9531 15.7682 12.9531 15.5078C12.9531 15.2526 12.8594 15.0391 12.6719 14.8672C12.4844 14.6953 12.2604 14.6094 12 14.6094C11.7344 14.6094 11.5078 14.6953 11.3203 14.8672C11.1328 15.0391 11.0391 15.2526 11.0391 15.5078C11.0391 15.7682 11.1328 15.9818 11.3203 16.1484C11.513 16.3151 11.7396 16.3984 12 16.3984Z" fill="white"/>
</svg>
