<svg width="24" height="24" viewBox="0 0 24 24" fill="none" xmlns="http://www.w3.org/2000/svg">
<path d="M8.04688 13.3359H11.9844C12.1615 13.3359 12.3099 13.276 12.4297 13.1562C12.5495 13.0365 12.6094 12.888 12.6094 12.7109V7.59375C12.6094 7.42188 12.5495 7.27604 12.4297 7.15625C12.3099 7.03646 12.1615 6.97656 11.9844 6.97656C11.8125 6.97656 11.6667 7.03646 11.5469 7.15625C11.4271 7.27604 11.3672 7.42188 11.3672 7.59375V12.0938H8.04688C7.86979 12.0938 7.72135 12.1536 7.60156 12.2734C7.48177 12.388 7.42188 12.5339 7.42188 12.7109C7.42188 12.888 7.48177 13.0365 7.60156 13.1562C7.72135 13.276 7.86979 13.3359 8.04688 13.3359ZM11.9922 20.4297C10.8776 20.4297 9.83333 20.2188 8.85938 19.7969C7.88542 19.3802 7.02865 18.8021 6.28906 18.0625C5.54948 17.3229 4.96875 16.4661 4.54688 15.4922C4.13021 14.5182 3.92188 13.474 3.92188 12.3594C3.92188 11.2448 4.13021 10.2005 4.54688 9.22656C4.96875 8.2474 5.54948 7.39062 6.28906 6.65625C7.02865 5.91667 7.88542 5.33854 8.85938 4.92188C9.83333 4.5 10.8776 4.28906 11.9922 4.28906C13.1068 4.28906 14.151 4.5 15.125 4.92188C16.1042 5.33854 16.9635 5.91667 17.7031 6.65625C18.4427 7.39062 19.0208 8.2474 19.4375 9.22656C19.8594 10.2005 20.0703 11.2448 20.0703 12.3594C20.0703 13.474 19.8594 14.5182 19.4375 15.4922C19.0208 16.4661 18.4427 17.3229 17.7031 18.0625C16.9635 18.8021 16.1042 19.3802 15.125 19.7969C14.151 20.2188 13.1068 20.4297 11.9922 20.4297Z" fill="white"/>
</svg>
