<svg width="34" height="32" viewBox="0 0 34 32" fill="none" xmlns="http://www.w3.org/2000/svg">
<path d="M14.0125 26.8398H20.3758V20.0781C20.3758 19.8047 20.2938 19.5859 20.1297 19.4219C19.9656 19.2578 19.7469 19.1758 19.4734 19.1758H14.9266C14.6531 19.1758 14.4305 19.2578 14.2586 19.4219C14.0945 19.5859 14.0125 19.8047 14.0125 20.0781V26.8398ZM6.67657 26.3945V17.4414L16.4734 9.22656C16.95 8.82031 17.4305 8.82031 17.9149 9.22656L27.7117 17.4414V26.3945C27.7117 27.2383 27.4617 27.8984 26.9617 28.375C26.4617 28.8516 25.782 29.0898 24.9227 29.0898H9.46564C8.59845 29.0898 7.91486 28.8516 7.41486 28.375C6.92267 27.8984 6.67657 27.2383 6.67657 26.3945ZM4.08673 16.9258C3.71173 16.9258 3.41486 16.8164 3.19611 16.5977C2.98517 16.3711 2.8797 16.1055 2.8797 15.8008C2.8797 15.4336 3.03204 15.125 3.33673 14.875L15.5477 4.62109C16.0555 4.19141 16.6024 3.97656 17.1883 3.97656C17.782 3.97656 18.3289 4.19141 18.8289 4.62109L31.0399 14.875C31.3524 15.125 31.5086 15.4336 31.5086 15.8008C31.5086 16.1055 31.3992 16.3711 31.1805 16.5977C30.9695 16.8164 30.6766 16.9258 30.3016 16.9258C30.1219 16.9258 29.95 16.8867 29.7859 16.8086C29.6297 16.7227 29.4813 16.6211 29.3406 16.5039L17.6922 6.73047C17.5359 6.59766 17.368 6.53125 17.1883 6.53125C17.0164 6.53125 16.8524 6.59766 16.6961 6.73047L5.05939 16.5039C4.91095 16.6211 4.7547 16.7227 4.59064 16.8086C4.43439 16.8867 4.26642 16.9258 4.08673 16.9258ZM24.6297 10.1289V7.41016C24.6297 7.14453 24.7078 6.93359 24.8641 6.77734C25.0281 6.62109 25.2391 6.54297 25.4969 6.54297H27.0789C27.3445 6.54297 27.5555 6.62109 27.7117 6.77734C27.868 6.93359 27.9461 7.14453 27.9461 7.41016V12.918L24.6297 10.1289Z" fill="black" fill-opacity="0.2"/>
</svg>
