<svg width="32" height="32" viewBox="0 0 32 32" fill="none" xmlns="http://www.w3.org/2000/svg">
<path d="M8.5 16.5391C8.5 16.3359 8.53516 16.1484 8.60547 15.9766C8.68359 15.8047 8.80078 15.6406 8.95703 15.4844L18.0859 6.55469C18.3516 6.29688 18.6719 6.16797 19.0469 6.16797C19.3047 6.16797 19.5352 6.23047 19.7383 6.35547C19.9492 6.47266 20.1172 6.63281 20.2422 6.83594C20.3672 7.03906 20.4297 7.26953 20.4297 7.52734C20.4297 7.89453 20.2852 8.22266 19.9961 8.51172L11.7695 16.5391L19.9961 24.5664C20.2852 24.8555 20.4297 25.1875 20.4297 25.5625C20.4297 25.8125 20.3672 26.0391 20.2422 26.2422C20.1172 26.4531 19.9492 26.6172 19.7383 26.7344C19.5352 26.8594 19.3047 26.9219 19.0469 26.9219C18.6719 26.9219 18.3516 26.7891 18.0859 26.5234L8.95703 17.5938C8.80078 17.4375 8.68359 17.2734 8.60547 17.1016C8.53516 16.9297 8.5 16.7422 8.5 16.5391Z" fill="#00A2FF"/>
</svg>
