<svg width="32" height="32" viewBox="0 0 32 32" fill="none" xmlns="http://www.w3.org/2000/svg">
<path d="M15.9883 27.8711C15.8477 27.8711 15.6758 27.8242 15.4727 27.7305C15.2695 27.6367 15.082 27.5312 14.9102 27.4141C12.7227 26.0078 10.8203 24.5312 9.20312 22.9844C7.59375 21.4375 6.34766 19.8438 5.46484 18.2031C4.58984 16.5625 4.15234 14.9102 4.15234 13.2461C4.15234 12.168 4.32422 11.1836 4.66797 10.293C5.01172 9.39453 5.49219 8.62109 6.10938 7.97266C6.72656 7.32422 7.4375 6.82422 8.24219 6.47266C9.05469 6.11328 9.92969 5.93359 10.8672 5.93359C12.0312 5.93359 13.0469 6.23047 13.9141 6.82422C14.7812 7.41797 15.4727 8.19141 15.9883 9.14453C16.5195 8.18359 17.2148 7.41016 18.0742 6.82422C18.9414 6.23047 19.957 5.93359 21.1211 5.93359C22.0586 5.93359 22.9336 6.11328 23.7461 6.47266C24.5586 6.82422 25.2695 7.32422 25.8789 7.97266C26.4883 8.62109 26.9648 9.39453 27.3086 10.293C27.6602 11.1836 27.8359 12.168 27.8359 13.2461C27.8359 14.9102 27.3945 16.5625 26.5117 18.2031C25.6289 19.8438 24.3828 21.4375 22.7734 22.9844C21.1719 24.5312 19.2773 26.0078 17.0898 27.4141C16.9102 27.5312 16.7188 27.6367 16.5156 27.7305C16.3203 27.8242 16.1445 27.8711 15.9883 27.8711Z" fill="#00A2FF"/>
</svg>
