<svg width="20" height="20" viewBox="0 0 20 20" fill="none" xmlns="http://www.w3.org/2000/svg">
<path d="M11.1094 18.6797C10.9948 18.6797 10.8932 18.6406 10.8047 18.5625C10.7214 18.4844 10.6719 18.3828 10.6562 18.2578C10.5312 17.4141 10.3984 16.7031 10.2578 16.125C10.1172 15.5521 9.9349 15.0807 9.71094 14.7109C9.48698 14.3411 9.1901 14.0469 8.82031 13.8281C8.45573 13.6042 7.98958 13.4245 7.42188 13.2891C6.85938 13.1536 6.16146 13.0312 5.32812 12.9219C5.19271 12.9062 5.08594 12.8568 5.00781 12.7734C4.92969 12.6849 4.89062 12.5781 4.89062 12.4531C4.89062 12.3333 4.92969 12.2318 5.00781 12.1484C5.09115 12.0599 5.19792 12.0078 5.32812 11.9922C6.16146 11.8984 6.86198 11.7891 7.42969 11.6641C7.9974 11.5339 8.46615 11.3568 8.83594 11.1328C9.20573 10.9036 9.5026 10.6016 9.72656 10.2266C9.95573 9.85156 10.138 9.375 10.2734 8.79688C10.4141 8.21875 10.5417 7.50521 10.6562 6.65625C10.6719 6.53125 10.7214 6.42969 10.8047 6.35156C10.8932 6.27344 10.9948 6.23438 11.1094 6.23438C11.2344 6.23438 11.3359 6.27344 11.4141 6.35156C11.4974 6.42969 11.5521 6.53125 11.5781 6.65625C11.6927 7.50521 11.8177 8.21875 11.9531 8.79688C12.0938 9.375 12.276 9.85156 12.5 10.2266C12.7292 10.5964 13.026 10.8958 13.3906 11.125C13.7604 11.349 14.2292 11.526 14.7969 11.6562C15.3646 11.7865 16.0651 11.8984 16.8984 11.9922C17.0286 12.0078 17.1328 12.0599 17.2109 12.1484C17.2943 12.237 17.3359 12.3385 17.3359 12.4531C17.3359 12.5781 17.2943 12.6849 17.2109 12.7734C17.1328 12.862 17.0286 12.9115 16.8984 12.9219C16.0651 13.0156 15.362 13.1276 14.7891 13.2578C14.2214 13.3828 13.7526 13.5573 13.3828 13.7812C13.013 14.0052 12.7161 14.3047 12.4922 14.6797C12.2682 15.0547 12.0859 15.5339 11.9453 16.1172C11.8099 16.7005 11.6875 17.4141 11.5781 18.2578C11.5573 18.3828 11.5052 18.4844 11.4219 18.5625C11.3385 18.6406 11.2344 18.6797 11.1094 18.6797ZM5.71094 10.0234C5.53385 10.0234 5.43229 9.92708 5.40625 9.73438C5.34375 9.21875 5.27865 8.8151 5.21094 8.52344C5.14323 8.22656 5.03385 8.00521 4.88281 7.85938C4.73177 7.70833 4.5026 7.59375 4.19531 7.51562C3.89323 7.4375 3.47917 7.35417 2.95312 7.26562C2.75521 7.23958 2.65625 7.14062 2.65625 6.96875C2.65625 6.80729 2.74219 6.71094 2.91406 6.67969C3.45052 6.58073 3.8724 6.49219 4.17969 6.41406C4.48698 6.33073 4.71615 6.21615 4.86719 6.07031C5.02344 5.92448 5.13542 5.70833 5.20312 5.42188C5.27604 5.13542 5.34375 4.73438 5.40625 4.21875C5.43229 4.02604 5.53385 3.92969 5.71094 3.92969C5.88281 3.92969 5.98177 4.02083 6.00781 4.20312C6.07031 4.72917 6.13542 5.14323 6.20312 5.44531C6.27604 5.7474 6.38802 5.97396 6.53906 6.125C6.6901 6.27604 6.91927 6.38802 7.22656 6.46094C7.53385 6.52865 7.95573 6.60156 8.49219 6.67969C8.57031 6.6849 8.63281 6.71615 8.67969 6.77344C8.73177 6.82552 8.75781 6.89062 8.75781 6.96875C8.75781 7.13542 8.67188 7.23438 8.5 7.26562C7.95833 7.36979 7.53385 7.46354 7.22656 7.54688C6.92448 7.625 6.69792 7.73958 6.54688 7.89062C6.39583 8.03646 6.28385 8.25521 6.21094 8.54688C6.13802 8.83333 6.07031 9.23438 6.00781 9.75C5.99219 9.82812 5.95833 9.89323 5.90625 9.94531C5.85417 9.9974 5.78906 10.0234 5.71094 10.0234ZM9.49219 4.5625C9.38281 4.5625 9.32031 4.50521 9.30469 4.39062C9.2474 4.07292 9.19531 3.82292 9.14844 3.64062C9.10677 3.45833 9.03906 3.32031 8.94531 3.22656C8.85677 3.13281 8.71875 3.0599 8.53125 3.00781C8.34896 2.95052 8.08854 2.89323 7.75 2.83594C7.63542 2.8099 7.57812 2.74219 7.57812 2.63281C7.57812 2.53385 7.63542 2.47135 7.75 2.44531C8.08854 2.38281 8.34896 2.32552 8.53125 2.27344C8.71875 2.21615 8.85677 2.14062 8.94531 2.04688C9.03906 1.95312 9.10677 1.81771 9.14844 1.64062C9.19531 1.45833 9.2474 1.20833 9.30469 0.890625C9.32031 0.776042 9.38281 0.71875 9.49219 0.71875C9.60156 0.71875 9.66667 0.776042 9.6875 0.890625C9.73958 1.20833 9.78906 1.45833 9.83594 1.64062C9.88281 1.82292 9.95052 1.96094 10.0391 2.05469C10.1328 2.14844 10.2708 2.22396 10.4531 2.28125C10.6406 2.33333 10.9036 2.38802 11.2422 2.44531C11.3568 2.46615 11.4141 2.52865 11.4141 2.63281C11.4141 2.74219 11.3568 2.8099 11.2422 2.83594C10.9036 2.89323 10.6406 2.95052 10.4531 3.00781C10.2708 3.0599 10.1328 3.13542 10.0391 3.23438C9.95052 3.32812 9.88281 3.46615 9.83594 3.64844C9.78906 3.82552 9.73958 4.07292 9.6875 4.39062C9.66667 4.50521 9.60156 4.5625 9.49219 4.5625Z" fill="#00A2FF"/>
</svg>
