<svg width="32" height="32" viewBox="0 0 32 32" fill="none" xmlns="http://www.w3.org/2000/svg">
<path d="M3.30859 26.0312C3.04297 25.7031 2.90625 25.3984 2.89844 25.1172C2.89844 24.8438 3.01562 24.6211 3.25 24.4492C3.46094 24.293 3.68359 24.2109 3.91797 24.2031C4.16016 24.1953 4.42188 24.1758 4.70312 24.1445C4.98438 24.1133 5.28516 23.9766 5.60547 23.7344C5.87891 23.5312 6.06641 23.2734 6.16797 22.9609C6.26953 22.6406 6.35938 22.2969 6.4375 21.9297C6.51562 21.5547 6.65234 21.1758 6.84766 20.793C7.04297 20.4023 7.375 20.0312 7.84375 19.6797C8.42969 19.2266 9.08594 18.9805 9.8125 18.9414C10.5391 18.8945 11.2539 19.0391 11.957 19.375C12.6602 19.7031 13.2656 20.207 13.7734 20.8867C14.3438 21.6367 14.6758 22.4219 14.7695 23.2422C14.8711 24.0547 14.7461 24.8398 14.3945 25.5977C14.043 26.3555 13.4688 27.0312 12.6719 27.625C11.9766 28.1406 11.1992 28.4805 10.3398 28.6445C9.48047 28.8164 8.60938 28.8242 7.72656 28.668C6.85156 28.5195 6.02734 28.2188 5.25391 27.7656C4.48047 27.3125 3.83203 26.7344 3.30859 26.0312ZM14.4062 19.1758C13.9609 18.7227 13.4648 18.3438 12.918 18.0391C12.3711 17.7344 11.8477 17.5352 11.3477 17.4414C11.4258 17.0039 11.5664 16.5898 11.7695 16.1992C11.9805 15.8086 12.2734 15.4219 12.6484 15.0391C12.7031 14.9766 12.7617 14.9141 12.8242 14.8516C12.8867 14.7891 12.9531 14.7266 13.0234 14.6641C13.7578 14.7891 14.4531 15.0273 15.1094 15.3789C15.7734 15.7227 16.3672 16.1602 16.8906 16.6914C17.4219 17.2227 17.8633 17.8203 18.2148 18.4844C18.5742 19.1406 18.8086 19.8398 18.918 20.582C18.8633 20.6445 18.8047 20.707 18.7422 20.7695C18.6797 20.832 18.6172 20.8906 18.5547 20.9453C18.1797 21.3125 17.8008 21.6016 17.418 21.8125C17.0352 22.0234 16.6133 22.168 16.1523 22.2461C16.0664 21.7539 15.8672 21.2344 15.5547 20.6875C15.25 20.1328 14.8672 19.6289 14.4062 19.1758ZM25.5508 4.9375C25.957 4.64063 26.3672 4.48828 26.7812 4.48047C27.1953 4.47266 27.582 4.57422 27.9414 4.78516C28.3008 4.99609 28.582 5.27734 28.7852 5.62891C28.9961 5.98047 29.1016 6.37109 29.1016 6.80078C29.1016 7.22266 28.957 7.64063 28.668 8.05469C28.5898 8.15625 28.4141 8.40625 28.1406 8.80469C27.8672 9.19531 27.5156 9.69531 27.0859 10.3047C26.6562 10.9141 26.168 11.5898 25.6211 12.332C25.082 13.0742 24.5078 13.8438 23.8984 14.6406C23.2969 15.4297 22.6836 16.2148 22.0586 16.9961C21.4414 17.7773 20.832 18.5039 20.2305 19.1758C19.7773 17.7852 19.0391 16.582 18.0156 15.5664C17 14.5508 15.8008 13.8164 14.418 13.3633C15.0977 12.7695 15.8242 12.1602 16.5977 11.5352C17.3789 10.9102 18.168 10.2969 18.9648 9.69531C19.7695 9.08594 20.543 8.51172 21.2852 7.97266C22.0273 7.43359 22.6992 6.94922 23.3008 6.51953C23.9023 6.08984 24.4023 5.73828 24.8008 5.46484C25.1992 5.18359 25.4492 5.00781 25.5508 4.9375Z" fill="#00A2FF"/>
</svg>
