<svg width="32" height="32" viewBox="0 0 32 32" fill="none" xmlns="http://www.w3.org/2000/svg">
<path d="M3.08594 29.2305C2.55469 29.2305 2.14453 29.0859 1.85547 28.7969C1.57422 28.5078 1.43359 28.0977 1.43359 27.5664V8.14844C1.43359 7.625 1.57422 7.21875 1.85547 6.92969C2.14453 6.63281 2.55469 6.48438 3.08594 6.48438H5.27734C5.80859 6.48438 6.21484 6.63281 6.49609 6.92969C6.78516 7.21875 6.92969 7.625 6.92969 8.14844V27.5664C6.92969 28.0977 6.78516 28.5078 6.49609 28.7969C6.21484 29.0859 5.80859 29.2305 5.27734 29.2305H3.08594ZM9.97656 29.2305C9.44531 29.2305 9.03516 29.0859 8.74609 28.7969C8.45703 28.5078 8.3125 28.0977 8.3125 27.5664V12.2969C8.3125 11.7734 8.45703 11.3672 8.74609 11.0781C9.03516 10.7891 9.44531 10.6445 9.97656 10.6445H14.4883C15.0273 10.6445 15.4375 10.7891 15.7188 11.0781C16.0078 11.3672 16.1523 11.7734 16.1523 12.2969V27.5664C16.1523 28.0977 16.0078 28.5078 15.7188 28.7969C15.4375 29.0859 15.0273 29.2305 14.4883 29.2305H9.97656ZM11.0195 15.0039H13.4805C13.6992 15.0039 13.8828 14.9297 14.0312 14.7812C14.1797 14.6328 14.2539 14.4492 14.2539 14.2305C14.2539 14.0117 14.1836 13.8281 14.043 13.6797C13.9023 13.5234 13.7148 13.4453 13.4805 13.4453H11.0195C10.793 13.4453 10.6016 13.5234 10.4453 13.6797C10.2969 13.8281 10.2227 14.0117 10.2227 14.2305C10.2227 14.4492 10.2969 14.6328 10.4453 14.7812C10.6016 14.9297 10.793 15.0039 11.0195 15.0039ZM11.0195 26.4297H13.4805C13.6992 26.4297 13.8828 26.3516 14.0312 26.1953C14.1797 26.0469 14.2539 25.8633 14.2539 25.6445C14.2539 25.418 14.1797 25.2305 14.0312 25.082C13.8828 24.9336 13.6992 24.8594 13.4805 24.8594H11.0195C10.793 24.8594 10.6016 24.9336 10.4453 25.082C10.2969 25.2305 10.2227 25.418 10.2227 25.6445C10.2227 25.8633 10.2969 26.0469 10.4453 26.1953C10.6016 26.3516 10.793 26.4297 11.0195 26.4297ZM19.1992 29.2305C18.668 29.2305 18.2578 29.0859 17.9688 28.7969C17.6875 28.5078 17.5469 28.0977 17.5469 27.5664V4.84375C17.5469 4.32031 17.6875 3.91406 17.9688 3.625C18.2578 3.32813 18.668 3.17969 19.1992 3.17969H21.918C22.457 3.17969 22.8672 3.32813 23.1484 3.625C23.4375 3.91406 23.582 4.32031 23.582 4.84375V27.5664C23.582 28.0977 23.4375 28.5078 23.1484 28.7969C22.8672 29.0859 22.457 29.2305 21.918 29.2305H19.1992ZM27.3203 29.2891C26.7969 29.3516 26.3789 29.2539 26.0664 28.9961C25.7539 28.7383 25.5664 28.3477 25.5039 27.8242L23.3594 8.71094C23.3125 8.1875 23.4141 7.76953 23.6641 7.45703C23.9141 7.13672 24.3008 6.94531 24.8242 6.88281L26.582 6.63672C27.1133 6.57422 27.5352 6.67188 27.8477 6.92969C28.168 7.1875 28.3555 7.57812 28.4102 8.10156L30.543 27.2031C30.6055 27.7344 30.5117 28.1562 30.2617 28.4688C30.0117 28.7891 29.6211 28.9805 29.0898 29.043L27.3203 29.2891Z" fill="#00A2FF"/>
</svg>
