<svg width="32" height="32" viewBox="0 0 32 32" fill="none" xmlns="http://www.w3.org/2000/svg">
<path d="M8.01953 9.69531C8.01953 8.65625 8.22266 7.69141 8.62891 6.80078C9.04297 5.91016 9.61328 5.12891 10.3398 4.45703C11.0742 3.78516 11.9219 3.26562 12.8828 2.89844C13.8516 2.52344 14.8906 2.33594 16 2.33594C17.1016 2.33594 18.1367 2.52344 19.1055 2.89844C20.0742 3.26562 20.9219 3.78516 21.6484 4.45703C22.3828 5.12891 22.9531 5.91016 23.3594 6.80078C23.7656 7.69141 23.9688 8.65625 23.9688 9.69531C23.9688 10.5859 23.8711 11.3789 23.6758 12.0742C23.4805 12.7695 23.2305 13.4531 22.9258 14.125C22.6211 14.7969 22.3086 15.5312 21.9883 16.3281C21.668 17.125 21.3828 18.0625 21.1328 19.1406C20.8828 20.2188 20.7148 21.5234 20.6289 23.0547C20.6133 23.3281 20.5195 23.5469 20.3477 23.7109C20.1836 23.8672 19.957 23.9453 19.668 23.9453H12.3203C12.0312 23.9453 11.8047 23.8672 11.6406 23.7109C11.4766 23.5469 11.3867 23.3281 11.3711 23.0547C11.2852 21.5234 11.1133 20.2188 10.8555 19.1406C10.6055 18.0625 10.3203 17.125 10 16.3281C9.6875 15.5312 9.37891 14.7969 9.07422 14.125C8.76953 13.4531 8.51562 12.7695 8.3125 12.0742C8.11719 11.3789 8.01953 10.5859 8.01953 9.69531ZM12.2383 26.6641C12.0273 26.6641 11.8477 26.5898 11.6992 26.4414C11.5508 26.293 11.4766 26.1172 11.4766 25.9141C11.4766 25.7109 11.5508 25.5352 11.6992 25.3867C11.8477 25.2383 12.0273 25.1641 12.2383 25.1641H19.7617C19.9727 25.1641 20.1484 25.2383 20.2891 25.3867C20.4375 25.5352 20.5117 25.7109 20.5117 25.9141C20.5117 26.1172 20.4375 26.293 20.2891 26.4414C20.1484 26.5898 19.9727 26.6641 19.7617 26.6641H12.2383ZM16 30.1445C15.0625 30.1445 14.2578 29.9375 13.5859 29.5234C12.9219 29.1094 12.5664 28.5625 12.5195 27.8828H19.4688C19.4062 28.5625 19.043 29.1094 18.3789 29.5234C17.7148 29.9375 16.9219 30.1445 16 30.1445Z" fill="#00A2FF"/>
</svg>
