<svg width="24" height="24" viewBox="0 0 24 24" fill="none" xmlns="http://www.w3.org/2000/svg">
<path d="M4.00781 15.25C4.00781 14.4167 4.14844 13.6641 4.42969 12.9922C4.71615 12.3151 5.10156 11.7812 5.58594 11.3906C6.07552 11 6.625 10.8047 7.23438 10.8047H8.3125C8.0625 11.1276 7.82552 11.5026 7.60156 11.9297C7.38281 12.3568 7.20312 12.8411 7.0625 13.3828C6.92708 13.9193 6.85938 14.5156 6.85938 15.1719C6.85417 16.0833 7.01302 16.9271 7.33594 17.7031C7.66406 18.474 8.18229 19.1328 8.89062 19.6797H7.53125C6.85938 19.6797 6.25781 19.4792 5.72656 19.0781C5.19531 18.6771 4.77604 18.1432 4.46875 17.4766C4.16146 16.8047 4.00781 16.0625 4.00781 15.25ZM8 15.1875C8 14.5625 8.05469 14.0026 8.16406 13.5078C8.27344 13.0078 8.44271 12.5365 8.67188 12.0938C8.90104 11.6458 9.1901 11.1901 9.53906 10.7266C10.1432 9.92448 10.8099 9.04688 11.5391 8.09375C12.2682 7.14062 12.9297 6.08854 13.5234 4.9375C13.6901 4.61458 13.862 4.36198 14.0391 4.17969C14.2161 3.9974 14.4531 3.90625 14.75 3.90625C15.0833 3.90625 15.362 4.01562 15.5859 4.23438C15.8099 4.45312 15.9219 4.75781 15.9219 5.14844C15.9219 5.5026 15.8516 5.88542 15.7109 6.29688C15.5755 6.70312 15.4193 7.10938 15.2422 7.51562C15.0651 7.92188 14.9089 8.30469 14.7734 8.66406C14.6432 9.02344 14.5781 9.33594 14.5781 9.60156C14.5781 9.8776 14.6797 10.0964 14.8828 10.2578C15.0911 10.4193 15.3646 10.5 15.7031 10.5H18.5234C18.7995 10.5 19.0469 10.5651 19.2656 10.6953C19.4844 10.8255 19.6589 11.0026 19.7891 11.2266C19.9193 11.4505 19.9844 11.6979 19.9844 11.9688C19.9844 12.1927 19.9479 12.3958 19.875 12.5781C19.8021 12.7552 19.7031 12.901 19.5781 13.0156C19.474 13.1094 19.4661 13.1979 19.5547 13.2812C19.6536 13.3854 19.7318 13.5286 19.7891 13.7109C19.8516 13.888 19.8828 14.0729 19.8828 14.2656C19.8828 14.5312 19.8255 14.7708 19.7109 14.9844C19.5964 15.1979 19.4479 15.3646 19.2656 15.4844C19.1458 15.5521 19.125 15.6406 19.2031 15.75C19.3854 15.9948 19.4766 16.2969 19.4766 16.6562C19.4766 16.9688 19.388 17.2422 19.2109 17.4766C19.0391 17.7057 18.8281 17.8776 18.5781 17.9922C18.4896 18.0286 18.474 18.0964 18.5312 18.1953C18.5781 18.2786 18.6172 18.3776 18.6484 18.4922C18.6849 18.6068 18.7031 18.7396 18.7031 18.8906C18.7031 19.276 18.5729 19.5781 18.3125 19.7969C18.0573 20.0156 17.7604 20.1667 17.4219 20.25C17.2031 20.3073 16.901 20.3516 16.5156 20.3828C16.1302 20.4193 15.6823 20.4375 15.1719 20.4375H14.0781C13.1458 20.4375 12.3047 20.3047 11.5547 20.0391C10.8047 19.7734 10.1641 19.4036 9.63281 18.9297C9.10156 18.4557 8.69531 17.901 8.41406 17.2656C8.13281 16.625 7.99479 15.9323 8 15.1875Z" fill="white"/>
</svg>
