<svg width="32" height="32" viewBox="0 0 32 32" fill="none" xmlns="http://www.w3.org/2000/svg">
<path d="M0.53125 25.3164V7.77344C0.53125 7.46875 0.621094 7.22656 0.800781 7.04688C0.988281 6.85938 1.23438 6.76562 1.53906 6.76562H30.4609C30.7656 6.76562 31.0078 6.85938 31.1875 7.04688C31.375 7.22656 31.4688 7.46875 31.4688 7.77344V25.3164C31.4688 25.6133 31.375 25.8555 31.1875 26.043C31.0078 26.2305 30.7656 26.3242 30.4609 26.3242H1.53906C1.23438 26.3242 0.988281 26.2305 0.800781 26.043C0.621094 25.8555 0.53125 25.6133 0.53125 25.3164ZM2.96875 23.2305C2.96875 23.668 3.18359 23.8867 3.61328 23.8867H28.3867C28.8164 23.8867 29.0312 23.668 29.0312 23.2305V9.87109C29.0312 9.43359 28.8164 9.21484 28.3867 9.21484H3.61328C3.18359 9.21484 2.96875 9.43359 2.96875 9.87109V23.2305ZM4.25781 22.3281V10.7617C4.25781 10.5898 4.34766 10.5039 4.52734 10.5039H13.2695C12.707 11.1133 12.2656 11.9336 11.9453 12.9648C11.625 13.9961 11.4648 15.1836 11.4648 16.5273C11.4648 17.8711 11.625 19.0625 11.9453 20.1016C12.2734 21.1406 12.7227 21.9688 13.293 22.5859H4.52734C4.34766 22.5859 4.25781 22.5 4.25781 22.3281ZM12.9531 16.5273C12.9531 15.3555 13.0781 14.3398 13.3281 13.4805C13.5781 12.6133 13.9297 11.9414 14.3828 11.4648C14.8359 10.9883 15.3594 10.75 15.9531 10.75C16.5703 10.75 17.1133 10.9883 17.582 11.4648C18.0508 11.9414 18.4141 12.6133 18.6719 13.4805C18.9297 14.3398 19.0586 15.3555 19.0586 16.5273C19.0586 17.6992 18.9297 18.7188 18.6719 19.5859C18.4141 20.4531 18.0508 21.125 17.582 21.6016C17.1133 22.0781 16.5703 22.3164 15.9531 22.3164C15.3594 22.3164 14.8359 22.0781 14.3828 21.6016C13.9297 21.125 13.5781 20.4531 13.3281 19.5859C13.0781 18.7188 12.9531 17.6992 12.9531 16.5273ZM18.6836 22.5859C19.2617 21.9688 19.7148 21.1406 20.043 20.1016C20.3711 19.0625 20.5352 17.8711 20.5352 16.5273C20.5352 15.1836 20.3711 13.9961 20.043 12.9648C19.7227 11.9336 19.2734 11.1133 18.6953 10.5039H27.4727C27.6445 10.5039 27.7305 10.5898 27.7305 10.7617V22.3281C27.7305 22.5 27.6445 22.5859 27.4727 22.5859H18.6836Z" fill="#00A2FF"/>
</svg>
